<?xml version="1.0" encoding="UTF-8" standalone="no"?>
<!-- Created with Inkscape (http://www.inkscape.org/) -->
<svg
   xmlns:dc="http://purl.org/dc/elements/1.1/"
   xmlns:cc="http://web.resource.org/cc/"
   xmlns:rdf="http://www.w3.org/1999/02/22-rdf-syntax-ns#"
   xmlns:svg="http://www.w3.org/2000/svg"
   xmlns="http://www.w3.org/2000/svg"
   xmlns:sodipodi="http://sodipodi.sourceforge.net/DTD/sodipodi-0.dtd"
   xmlns:inkscape="http://www.inkscape.org/namespaces/inkscape"
   version="1.0"
   width="240"
   height="119.99999"
   id="svg2"
   sodipodi:version="0.32"
   inkscape:version="0.45.1"
   sodipodi:docname="comics_third_page.svg"
   inkscape:output_extension="org.inkscape.output.svg.inkscape"
   sodipodi:docbase="/tmp">
  <metadata
     id="metadata11">
    <rdf:RDF>
      <cc:Work
         rdf:about="">
        <dc:format>image/svg+xml</dc:format>
        <dc:type
           rdf:resource="http://purl.org/dc/dcmitype/StillImage" />
      </cc:Work>
    </rdf:RDF>
  </metadata>
  <sodipodi:namedview
     inkscape:window-height="590"
     inkscape:window-width="791"
     inkscape:pageshadow="2"
     inkscape:pageopacity="0.0"
     guidetolerance="10.0"
     gridtolerance="10.0"
     objecttolerance="10.0"
     borderopacity="1.0"
     bordercolor="#666666"
     pagecolor="#ffffff"
     id="base"
     inkscape:showpageshadow="false"
     showborder="false"
     inkscape:zoom="1.4367677"
     inkscape:cx="169.7577"
     inkscape:cy="68.375907"
     inkscape:window-x="110"
     inkscape:window-y="110"
     inkscape:current-layer="svg2" />
  <defs
     id="defs4" />
  <rect
     style="fill:#ffffff;fill-opacity:1;stroke:none;stroke-width:2;stroke-miterlimit:4;stroke-dasharray:none;stroke-opacity:1"
     id="rect3170"
     width="240"
     height="120"
     x="0"
     y="-7.6293945e-06" />
  <g
     id="layer1"
     transform="translate(4.5182705e-6,-932.36219)">
    <g
       transform="translate(-392,-58.99999)"
       id="g4318">
      <path
         d="M 392.281,991.64319 L 392.281,1051.0812 L 511.719,1051.0812 L 511.719,991.64319 L 392.281,991.64319 z M 451.17111,1005.2266 C 454.19719,1005.2267 456.59174,1005.9558 458.35478,1007.4142 C 460.11777,1008.8586 460.99929,1010.817 460.99931,1013.2892 C 460.99929,1015.0115 460.55195,1016.4699 459.61784,1017.6642 C 458.68367,1018.8449 457.35484,1019.6643 455.63131,1020.1226 C 457.53904,1020.5532 459.02575,1021.449 460.09148,1022.8101 C 461.17033,1024.1712 461.70975,1025.8518 461.70978,1027.8519 C 461.70975,1030.9213 460.70982,1033.2963 458.71,1034.9768 C 456.71015,1036.6575 453.86827,1037.4977 450.18435,1037.4977 C 448.94759,1037.4977 447.67139,1037.3658 446.35571,1037.1019 C 445.05316,1036.8519 443.68486,1036.4699 442.29023,1035.956 L 442.29023,1031.8935 C 443.39541,1032.5741 444.60583,1033.0879 445.92153,1033.4352 C 447.23722,1033.7825 448.63183,1033.956 450.06594,1033.956 C 452.56574,1033.956 454.44716,1033.4352 455.74972,1032.3935 C 457.06539,1031.3519 457.72324,1029.8379 457.72326,1027.8519 C 457.72324,1026.0185 457.13116,1024.5879 455.90759,1023.5601 C 454.69716,1022.5185 452.98676,1021.9976 450.81588,1021.9976 L 447.38195,1021.9976 L 447.38195,1018.5392 L 450.97378,1018.5392 C 452.93413,1018.5392 454.43401,1018.1295 455.47342,1017.3101 C 456.5128,1016.4768 457.05222,1015.2823 457.05224,1013.7267 C 457.05222,1012.1295 456.5128,1010.9073 455.43394,1010.06 C 454.36823,1009.1989 452.81573,1008.7684 450.81588,1008.7684 C 449.72386,1008.7684 448.55291,1008.8934 447.30301,1009.1433 C 446.05308,1009.3934 444.69792,1009.7823 443.19805,1010.31 L 443.19805,1006.56 C 444.71109,1006.1156 446.1057,1005.7822 447.42142,1005.56 C 448.75026,1005.3379 450.00016,1005.2267 451.17111,1005.2266 z "
         style="fill:#ffff00;stroke:#000000;stroke-width:0.56200904"
         id="path4304" />
      <path
         d="M 512.27997,991.64215 L 512.27997,1051.0822 L 631.72003,1051.0822 L 631.72003,991.64215 L 512.27997,991.64215 z M 573.51964,1005.8094 L 578.5325,1005.8094 L 578.5325,1026.0812 L 582.73618,1026.0812 L 582.73618,1029.5813 L 578.5325,1029.5813 L 578.5325,1036.915 L 574.56564,1036.915 L 574.56564,1029.5813 L 561.26382,1029.5813 L 561.26382,1025.5187 L 573.51964,1005.8094 z M 574.56564,1009.4763 L 564.50045,1026.0812 L 574.56564,1026.0812 L 574.56564,1009.4763 z "
         style="fill:#00ff00;stroke:#000000;stroke-width:0.55993247"
         id="path4306" />
      <path
         d="M 392.27247,1051.6347 L 392.27247,1111.0897 L 451.72753,1111.0897 L 451.72753,1051.6347 L 392.27247,1051.6347 z M 413.25048,1065.509 L 429.7704,1065.509 L 429.7704,1069.0504 L 417.10443,1069.0504 L 417.10443,1076.675 C 417.71549,1076.4666 418.32657,1076.3138 418.93766,1076.2167 C 419.54874,1076.1056 420.15981,1076.0502 420.7709,1076.05 C 424.24291,1076.0502 426.99275,1077.0014 429.02044,1078.904 C 431.04808,1080.8068 432.06191,1083.383 432.06194,1086.6327 C 432.06193,1089.9798 431.02031,1092.5837 428.93712,1094.4448 C 426.85388,1096.2919 423.91654,1097.2155 420.12511,1097.2155 C 418.8196,1097.2155 417.48636,1097.1043 416.12532,1096.882 C 414.77816,1096.66 413.3824,1096.3266 411.93805,1095.8821 L 411.93805,1091.6532 C 413.18798,1092.3338 414.47958,1092.8408 415.81283,1093.1741 C 417.1461,1093.5073 418.55573,1093.674 420.04176,1093.674 C 422.4444,1093.674 424.34707,1093.042 425.74978,1091.7782 C 427.15246,1090.5143 427.85382,1088.7993 427.85384,1086.6327 C 427.85382,1084.4662 427.15246,1082.7511 425.74978,1081.4871 C 424.34707,1080.2234 422.4444,1079.5916 420.04176,1079.5916 C 418.91681,1079.5916 417.79189,1079.7165 416.66696,1079.9665 C 415.5559,1080.2164 414.41708,1080.6053 413.25048,1081.133 L 413.25048,1065.509 z "
         style="fill:#0000ff;stroke:#000000;stroke-width:0.5449456"
         id="path4308" />
      <path
         d="M 452.30635,1051.6685 L 452.30635,1111.0558 L 631.69365,1111.0558 L 631.69365,1051.6685 L 452.30635,1051.6685 z M 544.01689,1065.2177 C 544.99946,1065.2177 545.96913,1065.3218 546.96468,1065.5303 C 547.9731,1065.7388 549.02033,1066.0514 550.10638,1066.4682 L 550.10638,1070.3038 C 549.12376,1069.8036 548.12824,1069.4215 547.11981,1069.1573 C 546.12427,1068.8934 545.15462,1068.7613 544.17205,1068.7613 C 541.58626,1068.7613 539.60815,1069.6993 538.2377,1071.5754 C 536.88018,1073.4515 536.10445,1076.2863 535.91053,1080.0801 C 536.67331,1078.8712 537.63005,1077.947 538.78072,1077.3077 C 539.93137,1076.6546 541.19841,1076.328 542.5818,1076.328 C 545.49075,1076.328 547.76624,1077.28 549.447,1079.1839 C 551.14064,1081.0738 552.00686,1083.6516 552.0069,1086.9174 C 552.00686,1090.1137 551.12772,1092.6775 549.36942,1094.6093 C 547.61109,1096.5408 545.27098,1097.5066 542.34907,1097.5066 C 539.00051,1097.5066 536.4406,1096.1309 534.66936,1093.3792 C 532.89811,1090.6139 531.9931,1086.6117 531.9931,1081.3726 C 531.9931,1076.4531 533.0791,1072.5343 535.25116,1069.6159 C 537.4232,1066.6838 540.35804,1065.2177 544.01689,1065.2177 z M 542.34907,1079.6632 C 540.59075,1079.6632 539.19443,1080.3095 538.16015,1081.6018 C 537.13875,1082.8942 536.60868,1084.666 536.60868,1086.9174 C 536.60868,1089.1547 537.13875,1090.9266 538.16015,1092.2328 C 539.19443,1093.5253 540.59075,1094.1713 542.34907,1094.1713 C 544.10738,1094.1713 545.47783,1093.5253 546.49922,1092.2328 C 547.53353,1090.9266 548.05066,1089.1547 548.05068,1086.9174 C 548.05066,1084.666 547.53353,1082.8942 546.49922,1081.6018 C 545.47783,1080.3095 544.10738,1079.6632 542.34907,1079.6632 z "
         style="fill:#ff00ff;stroke:#000000;stroke-width:0.61268628"
         id="path4310" />
    </g>
  </g>
</svg>
