<?xml version="1.0" encoding="UTF-8" standalone="no"?>
<svg
   xmlns:dc="http://purl.org/dc/elements/1.1/"
   xmlns:cc="http://creativecommons.org/ns#"
   xmlns:rdf="http://www.w3.org/1999/02/22-rdf-syntax-ns#"
   xmlns:svg="http://www.w3.org/2000/svg"
   xmlns="http://www.w3.org/2000/svg"
   xmlns:sodipodi="http://sodipodi.sourceforge.net/DTD/sodipodi-0.dtd"
   xmlns:inkscape="http://www.inkscape.org/namespaces/inkscape"
   width="200pt"
   height="107pt"
   viewBox="0 0 200 107"
   version="1.1"
   id="svg2"
   inkscape:version="0.48.2 r9819"
   sodipodi:docname="Shortest_path_optimal_substructure.svg">
  <metadata
     id="metadata62">
    <rdf:RDF>
      <cc:Work
         rdf:about="">
        <dc:format>image/svg+xml</dc:format>
        <dc:type
           rdf:resource="http://purl.org/dc/dcmitype/StillImage" />
        <dc:title></dc:title>
      </cc:Work>
    </rdf:RDF>
  </metadata>
  <defs
     id="defs60" />
  <sodipodi:namedview
     pagecolor="#ffffff"
     bordercolor="#666666"
     borderopacity="1"
     objecttolerance="10"
     gridtolerance="10"
     guidetolerance="10"
     inkscape:pageopacity="0"
     inkscape:pageshadow="2"
     inkscape:window-width="1920"
     inkscape:window-height="1017"
     id="namedview58"
     showgrid="false"
     inkscape:zoom="3.6430141"
     inkscape:cx="143.98843"
     inkscape:cy="52.751284"
     inkscape:window-x="1432"
     inkscape:window-y="-8"
     inkscape:window-maximized="1"
     inkscape:current-layer="svg2"
     showguides="true"
     inkscape:guide-bbox="true" />
  <path
     style="fill:#ffffff"
     inkscape:connector-curvature="0"
     id="path5"
     d="M 75.03,1.11 C 82.88,0.26 90.7,7.03 90.67,15.01 91.13,21.59 86.2,27.82 79.89,29.38 72.88,31.51 64.83,26.88 62.69,19.94 59.45,11.6 66.26,1.75 75.03,1.11 z" />
  <path
     style="fill:#ffffff"
     inkscape:connector-curvature="0"
     id="path7"
     d="m 117.81,5.35 c 2.63,-3.81 4.52,7.29 0.04,5.73 -0.92,-1.7 -1.4,-4.14 -0.04,-5.73 z" />
  <path
     style="fill:#ffffff"
     inkscape:connector-curvature="0"
     id="path11"
     d="M 74.16,40.13 C 82.33,38.74 90.78,45.63 90.66,54 91.21,61.9 83.9,69.23 75.99,68.67 68.96,68.85 62.81,62.83 61.97,56.01 61.04,48.58 66.77,41.22 74.16,40.13 z" />
  <path
     style="fill:#ffffff"
     inkscape:connector-curvature="0"
     id="path13"
     d="m 170.08,52.12 c 3.29,-1.22 3.27,2.54 2.4,4.59 -2.68,-0.01 -3.64,-2.44 -2.4,-4.59 z" />
  <path
     style="fill:#ffffff"
     inkscape:connector-curvature="0"
     id="path15"
     d="m 180.88,54.23 c -2.11,6.32 -7.18,-3.07 -1,-2.46 0.25,0.61 0.75,1.85 1,2.46 z" />
  <path
     style="fill:#ffffff"
     inkscape:connector-curvature="0"
     id="path17"
     d="m 17.09,54.33 c 5.26,-2.02 -0.49,4.92 0,0 z" />
  <path
     style="fill:#ffffff"
     inkscape:connector-curvature="0"
     id="path19"
     d="m 182.26,55.12 c 5.95,-3.44 2.8,3.88 0,0 z" />
  <path
     style="fill:#ffffff"
     inkscape:connector-curvature="0"
     id="path21"
     d="m 75.11,77.14 c 10.99,-1.32 19.77,12.09 13.68,21.54 -4.8,8.99 -18.86,9.67 -24.29,0.95 -6.57,-8.46 0.13,-21.89 10.61,-22.49 z" />
  <path
     style="fill:#030303"
     inkscape:connector-curvature="0"
     id="path24"
     d="m 73.8,0 8.04,0 -3.09,0.01 c 4.08,0.68 7.55,3.02 10.26,6.04 2.8,-1.8 6.41,-3.51 9.61,-1.58 4.99,3.25 3.47,11.52 9.36,13.88 3.62,-1.35 6.74,-5.15 11,-3.75 6.55,2.1 4.45,11.57 10.38,14.36 3.61,-0.72 6.47,-4.48 10.49,-3.19 6.94,1.92 4.5,12.27 11.12,14.49 4.57,-3.82 12.82,-6.3 15.5,1.06 9.7,-12.45 32.02,-6.19 33.53,9.66 l 0,7.71 -0.01,-1.66 c -2.52,15.99 -25.51,21.21 -34.47,7.67 -1.64,3.25 -3.14,8.13 -7.47,8.33 -4.31,0.74 -6.54,-4.87 -10.84,-3.99 -5.27,2.97 -4.2,11.43 -10.28,13.66 -4.84,1.6 -7.94,-5.6 -12.71,-2.74 -3.32,3.83 -3.39,10.26 -8.31,12.68 -5.38,2.89 -9.64,-7.42 -14.39,-2.1 -2.83,5.16 -5.32,15.22 -13.38,11.53 -2.77,2.4 -5.99,4.4 -9.69,4.93 l -7.35,0 2.64,-0.01 C 67.11,105.96 62.61,100.52 60.64,94.48 50.59,85.79 40.11,77.57 29.87,69.09 18.82,77.06 1.5,69.77 0,56.08 l 0,-7.74 0.01,1.63 C 2.35,36.73 19.13,29.83 30.01,37.78 40.43,31.71 50.78,25.55 61.15,19.4 58.91,10.76 64.94,1.38 73.8,0 m 1.23,1.11 C 66.26,1.75 59.45,11.6 62.69,19.94 64.83,26.88 72.88,31.51 79.89,29.38 86.2,27.82 91.13,21.59 90.67,15.01 90.7,7.03 82.88,0.26 75.03,1.11 M 90.76,9.1 c 2.52,6.67 0.74,15.08 -5.43,19.1 -7.33,5.5 -18.8,2.6 -22.97,-5.48 -9.84,5.89 -19.72,11.72 -29.62,17.51 3.16,3.49 5.11,8.04 5.19,12.77 7.63,0.03 15.26,-0.07 22.9,0.05 0.37,-6.33 5.15,-11.94 11.21,-13.63 8.48,-2.53 17.98,3.11 19.67,11.81 6.28,-5.86 10.89,3.96 16.38,5.83 6.44,1.82 5.62,-8.2 11.45,-8.43 6.39,-0.23 8.86,8.79 15.54,7.73 3.56,-1.49 3.54,-6.96 7.79,-7.61 6.67,-1.06 9.27,8.81 16.08,7.6 4.65,-1.86 2.64,-7.7 5.03,-11.21 C 162,32.69 151.38,49.09 145.87,41.11 142.01,37.57 142,24.86 134.52,30.65 126.72,36.37 121.6,26.33 120.05,20 116.72,13.9 111.73,22.94 107.12,21.55 100.79,20.27 100.3,12.75 97.59,8.12 95.66,5.72 92.71,7.88 90.76,9.1 M 15.05,36.03 C 3.36,38.23 -3.02,53.34 4,63.1 10.87,74.7 29.91,73.34 35.08,60.91 41.68,48.34 28.69,32.26 15.05,36.03 m 162.97,0.02 c -8.75,1.46 -15.63,10.05 -14.66,18.96 0.46,9.65 9.97,17.52 19.53,16.31 10.01,-0.77 18.04,-11.35 15.64,-21.18 -1.6,-9.18 -11.36,-15.91 -20.51,-14.09 M 74.16,40.13 c -7.39,1.09 -13.12,8.45 -12.19,15.88 0.84,6.82 6.99,12.84 14.02,12.66 C 83.9,69.23 91.21,61.9 90.66,54 90.78,45.63 82.33,38.74 74.16,40.13 m 37.02,18.09 C 103.41,60.81 98.96,45.42 91.82,52.82 93.06,61.75 85.06,70.6 75.99,69.84 67.44,70.22 60.57,62.25 60.55,54 53,54.01 45.46,54 37.92,54 c -0.04,5.55 -2.9,10.67 -6.94,14.34 9.8,8.21 19.9,16.05 29.57,24.42 -0.65,-9.84 8.75,-18.69 18.58,-16.54 11.25,1.45 16.55,16.11 9.71,24.87 7.59,2.84 8.71,-7.09 11.79,-11.48 4,-4.24 8.83,0.34 12.52,2.35 7.85,-0.24 5.72,-12.41 12.75,-13.79 4.36,-1.17 6.7,4.73 10.96,3.27 5.44,-2.68 4.2,-11.34 10.02,-13.39 4.57,-1.47 6.95,3.87 11.12,3.97 3.95,-0.92 5.11,-5.39 6.7,-8.57 -1.23,-2.4 -2.14,-4.97 -2.56,-7.64 -5.98,5.4 -11.64,-2.35 -16.28,-5.56 -6.33,-2.82 -6.06,7.85 -11.85,7.46 -5.53,-0.09 -8.34,-5.91 -13.02,-7.87 -5.65,-0.84 -5.19,7.15 -9.81,8.38 M 75.11,77.14 c -10.48,0.6 -17.18,14.03 -10.61,22.49 5.43,8.72 19.49,8.04 24.29,-0.95 C 94.88,89.23 86.1,75.82 75.11,77.14 z" />
  <text
     xml:space="preserve"
     style="font-size:11.19999981px;font-style:normal;font-variant:normal;font-weight:normal;font-stretch:normal;text-align:start;line-height:125%;letter-spacing:0px;word-spacing:0px;writing-mode:lr-tb;text-anchor:start;fill:#000000;fill-opacity:1;stroke:none;font-family:Liberation Sans;-inkscape-font-specification:Liberation Sans"
     x="44.868679"
     y="22.828981"
     id="text3056"
     sodipodi:linespacing="125%"><tspan
       sodipodi:role="line"
       id="tspan3058"
       x="44.868679"
       y="22.828981">5</tspan></text>
  <text
     xml:space="preserve"
     style="font-size:11.19999981000000000px;font-style:normal;font-variant:normal;font-weight:normal;font-stretch:normal;text-align:start;line-height:125%;letter-spacing:0px;word-spacing:0px;writing-mode:lr-tb;text-anchor:start;fill:#000000;fill-opacity:1;stroke:none;font-family:Liberation Sans;-inkscape-font-specification:Liberation Sans"
     x="108.82561"
     y="11.22833"
     id="text3060"
     sodipodi:linespacing="125%"><tspan
       sodipodi:role="line"
       id="tspan3062"
       x="114.55686"
       y="11.22833">20</tspan></text>
  <text
     xml:space="preserve"
     style="font-size:11.19999981000000000px;font-style:normal;font-variant:normal;font-weight:normal;font-stretch:normal;text-align:start;line-height:125%;letter-spacing:0px;word-spacing:0px;writing-mode:lr-tb;text-anchor:start;fill:#000000;fill-opacity:1;stroke:none;font-family:Liberation Sans;-inkscape-font-specification:Liberation Sans"
     x="108.842"
     y="45.289719"
     id="text3064"
     sodipodi:linespacing="125%"><tspan
       sodipodi:role="line"
       id="tspan3066"
       x="114.55685"
       y="45.289719">25</tspan></text>
  <text
     xml:space="preserve"
     style="font-size:11.19999981px;font-style:normal;font-variant:normal;font-weight:normal;font-stretch:normal;text-align:start;line-height:125%;letter-spacing:0px;word-spacing:0px;writing-mode:lr-tb;text-anchor:start;fill:#000000;fill-opacity:1;stroke:none;font-family:Liberation Sans;-inkscape-font-specification:Liberation Sans"
     x="108.785"
     y="79.086983"
     id="text3068"
     sodipodi:linespacing="125%"><tspan
       sodipodi:role="line"
       id="tspan3070"
       x="108.785"
       y="79.086983">17</tspan></text>
  <text
     xml:space="preserve"
     style="font-size:11.19999981000000000px;font-style:normal;font-variant:normal;font-weight:normal;font-stretch:normal;text-align:start;line-height:125%;letter-spacing:0px;word-spacing:0px;writing-mode:lr-tb;text-anchor:start;fill:#000000;fill-opacity:1;stroke:none;font-family:Liberation Sans;-inkscape-font-specification:Liberation Sans"
     x="41.645245"
     y="75.981781"
     id="text3072"
     sodipodi:linespacing="125%"><tspan
       sodipodi:role="line"
       id="tspan3074"
       x="47.176884"
       y="75.981781">11</tspan></text>
  <text
     xml:space="preserve"
     style="font-size:11.19999981000000000px;font-style:normal;font-variant:normal;font-weight:normal;font-stretch:normal;text-align:start;line-height:125%;letter-spacing:0px;word-spacing:0px;writing-mode:lr-tb;text-anchor:start;fill:#000000;fill-opacity:1;stroke:none;font-family:Liberation Sans;-inkscape-font-specification:Liberation Sans"
     x="44.874149"
     y="50.804813"
     id="text3076"
     sodipodi:linespacing="125%"><tspan
       sodipodi:role="line"
       id="tspan3078"
       x="47.42532"
       y="50.804813">2</tspan></text>
  <text
     xml:space="preserve"
     style="font-size:11.19999981px"
     x="8.2667446"
     y="57.210068"
     id="text3080"><tspan
       sodipodi:role="line"
       id="tspan3082"
       x="8.2667446"
       y="57.210068">start</tspan></text>
  <text
     style="font-size:11.19999981px"
     x="171.41055"
     y="56.635857"
     id="text3084"
     xml:space="default">
    <tspan
       sodipodi:role="line"
       id="tspan3086"
       x="171.41055"
       y="56.635857">goal</tspan>
  </text>
</svg>
