<?xml version="1.0" encoding="UTF-8" standalone="no"?>
<!-- Created with Inkscape (http://www.inkscape.org/) -->

<svg
   xmlns:dc="http://purl.org/dc/elements/1.1/"
   xmlns:cc="http://creativecommons.org/ns#"
   xmlns:rdf="http://www.w3.org/1999/02/22-rdf-syntax-ns#"
   xmlns:svg="http://www.w3.org/2000/svg"
   xmlns="http://www.w3.org/2000/svg"
   version="1.1"
   width="200"
   height="200"
   id="svg3071">
  <metadata
     id="metadata3077">
    <rdf:RDF>
      <cc:Work
         rdf:about="">
        <dc:format>image/svg+xml</dc:format>
        <dc:type
           rdf:resource="http://purl.org/dc/dcmitype/StillImage" />
        <dc:title></dc:title>
      </cc:Work>
    </rdf:RDF>
  </metadata>
  <defs
     id="defs3075" />
  <rect
     width="205.80913"
     height="207.88382"
     x="-2.9045644"
     y="-3.3195021"
     id="rect3089"
     style="fill:#ffbad1;fill-opacity:1;stroke:none" />
  <path
     d="m 142.73859,143.56846 c -0.13781,0.81836 -1.71559,0.29925 -2.48963,0 -0.95891,-0.37072 -1.40477,-1.53881 -2.28215,-2.07468 -0.50426,-0.30798 -1.20982,-0.23941 -1.65976,-0.62241 -0.42456,-0.3614 -0.56034,-0.9642 -0.82987,-1.45228 -0.56833,-1.02916 -0.49132,-2.98183 -1.65975,-3.11204 -0.69869,-0.0779 -1.76737,0.74412 -2.48963,-2.48962 -0.1758,-0.7871 -0.65307,-1.52672 -1.24481,-2.07469 -0.45385,-0.42028 -1.10225,-0.56193 -1.65975,-0.82988 -0.89244,-0.42893 -2.07377,-0.47546 -2.6971,-1.24481 -0.9822,-1.21228 -0.47999,-3.10702 -1.03734,-4.56432 -0.25434,-0.66503 -0.56063,-1.33836 -1.03735,-1.86722 -0.5652,-0.62702 -1.32063,-1.07281 -2.07469,-1.45228 -0.58605,-0.29492 -1.28175,-0.32632 -1.86722,-0.6224 -1.28418,-0.64942 -2.34754,-1.66512 -3.52697,-2.48963 -0.89618,-0.6265 -1.83132,-1.19932 -2.69709,-1.86722 -0.50483,-0.38945 -0.89451,-0.93592 -1.45228,-1.24481 -1.01414,-0.56163 -2.38055,-0.35745 -3.31951,-1.03735 -0.48185,-0.3489 -0.46644,-1.28501 -1.03734,-1.45228 -0.71479,-0.20943 -1.59902,0.2567 -2.07469,0.82987 -0.95431,1.14992 -1.75527,2.65034 -3.52697,2.28216 -1.55879,-0.32394 -2.06341,2.48136 -2.697097,3.94191 -1.015099,2.33964 -0.998501,5.00574 -1.659751,7.46888 -0.357266,1.33081 -1.186493,2.56521 -1.244813,3.94191 -0.128867,3.04206 -2.59632,3.67677 -3.319502,2.07469 -0.598994,-1.32697 -1.296304,-1.12002 -1.86722,0.62241 -0.397049,1.21179 -1.874291,1.73821 -2.904564,2.48962 -0.852887,0.62204 -2.530163,0.61741 -2.697096,1.65975 -0.51688,3.22743 -1.591191,0.85801 -2.282157,1.24482 -0.72664,0.40678 -1.267166,1.13281 -1.659751,1.86722 -0.77495,1.44969 -0.719947,3.214 -1.244814,4.77178 -0.287058,0.85197 -0.271388,2.96035 -1.037344,2.48963 -2.667943,-1.6396 -3.59247,-0.53771 -2.282158,3.11203 0.899447,2.50532 1.075169,2.35652 1.244814,3.52697 0.222921,1.53802 1.459542,2.8157 1.659751,4.35685 0.417351,3.21264 -0.414436,6.33878 -2.904565,5.80913 -0.920048,-0.19569 -1.470864,1.18374 -2.282157,1.65975 -0.854022,0.50108 -1.804655,0.81588 -2.697096,1.24481 -0.836255,0.40192 -1.650542,0.84883 -2.489626,1.24481 -0.615964,0.29069 -1.665925,0.17919 -1.86722,0.82988 -0.905955,2.9285 -2.518491,1.39931 -3.941909,0 -0.905336,-0.89 -2.05272,-1.78356 -3.319502,-1.86722 -0.743217,-0.0491 -1.331563,0.77943 -2.074689,0.82987 -0.568968,0.0386 -1.695635,0.15422 -1.659751,-0.41493 0.158036,-2.50656 -1.477329,-3.03225 -3.526971,-2.6971 -0.682497,0.1116 -1.386492,0.0682 -2.074689,0 -0.701826,-0.0695 -1.401167,-0.20575 -2.074688,-0.41494 -0.502977,-0.15622 -0.930152,-0.55334 -1.452283,-0.6224 -0.969574,-0.12824 -1.929007,0.3456 -2.904564,0.41493 -0.689823,0.049 -1.404569,0.17088 -2.074689,0 -0.839657,-0.21411 -1.452123,-0.99599 -2.282157,-1.24481 -0.797683,-0.23912 -1.855112,0.33185 -2.489627,-0.20747 -0.651782,-0.554 -0.622407,-1.63421 -0.622407,-2.48962 -10e-7,-1.42569 0.863149,-2.73437 1.037345,-4.14938 0.05915,-0.48047 0.05915,-0.97181 0,-1.45228 -0.174196,-1.41501 -0.391848,-2.87818 -1.037345,-4.14938 -0.489097,-0.96319 -1.504095,-1.57236 -2.074688,-2.48963 -0.719527,-1.15669 -1.258438,-2.43267 -1.659751,-3.73444 -0.227784,-0.73888 -0.345501,-1.51209 -0.414938,-2.28216 -0.03726,-0.41326 -0.120242,-0.84768 0,-1.24481 0.21677,-0.71594 0.69491,-1.3601 1.244813,-1.86722 0.523414,-0.48269 1.618089,-0.37034 1.86722,-1.03734 0.283228,-0.75829 -0.670509,-1.48855 -0.829876,-2.28216 -0.286253,-1.42547 -0.269219,-2.90423 -0.207468,-4.35685 0.04445,-1.04558 0.07993,-2.12058 0.414937,-3.11203 0.356962,-1.05643 1.781428,-1.79611 1.659751,-2.90456 -0.11218,-1.02194 -1.385383,-1.51939 -2.074688,-2.28216 -2.331641,-2.58015 -2.041048,-5.60052 0,-8.29876 0.970394,-1.28285 1.473445,-2.8649 2.074688,-4.35684 0.326973,-0.81136 0.628896,-1.63826 0.829876,-2.48963 0.449405,-1.90371 0.829875,-3.85309 0.829875,-5.80913 0,-0.48901 -0.290821,-0.97043 -0.207468,-1.45228 0.253099,-1.46312 0.853681,-3.096973 2.074688,-3.94191 0.458484,-0.317271 1.752353,0.342341 1.659751,-0.207469 -0.433212,-2.572118 0.725619,-2.704816 2.282158,-2.282158 0.803651,0.218221 1.110137,-1.312906 1.86722,-1.659751 0.951431,-0.435882 2.19579,0.09074 3.112033,-0.414937 0.945776,-0.521978 1.706943,-1.473893 2.074689,-2.489627 0.400223,-1.105437 -0.179104,-2.365037 0,-3.526971 0.209919,-1.361846 -0.102507,-4.230735 1.244813,-3.941909 3.0968,0.663863 2.300397,-1.521229 1.659751,-3.526971 -0.419252,-1.312599 0.204379,-3.038479 1.244814,-3.941908 0.635259,-0.551607 1.830481,0.107892 2.489626,-0.414938 0.704358,-0.558693 0.517622,-1.756041 1.037344,-2.489627 0.537857,-0.759183 1.339911,-1.296473 2.074689,-1.867219 0.590758,-0.458877 1.191469,-0.923996 1.86722,-1.244814 0.849727,-0.403415 1.824418,-0.478857 2.697096,-0.829875 1.230253,-0.494845 0.548398,-0.797713 1.86722,0.622406 2.641759,2.844668 3.935418,2.661456 6.431535,0.414938 2.162114,-1.945914 2.55641,-3.308078 4.149377,-1.659751 0.594453,0.615112 1.745244,-0.200944 2.489627,-0.622407 0.851071,-0.481868 1.454637,-1.318346 2.074689,-2.074688 0.474249,-0.578491 0.819894,-1.251584 1.244813,-1.86722 0.337931,-0.489606 0.598006,-1.051165 1.037344,-1.452282 0.758737,-0.692729 2.09629,-1.125572 1.659752,-2.489627 -0.358961,-1.12165 2.48451,-0.755402 3.52697,-0.207469 2.429128,1.276787 4.993998,1.781198 7.261411,0.622407 1.263524,-0.645741 2.664779,-1.713472 2.904569,-3.112033 0.27194,-1.586044 2.88338,-1.698673 4.97925,-1.86722 1.93138,-0.155319 3.89425,0.08845 5.80913,-0.207469 1.27679,-0.19731 2.97491,0.0078 3.73444,-1.037345 1.08335,-1.490684 2.82625,-1.790828 4.77178,-1.452282 2.04511,0.355874 4.3238,0.628053 6.22407,-0.207469 3.17568,-1.3963 5.74776,-4.100581 13.07054,-3.941908 0.94041,0.02038 1.76692,-0.690008 2.69709,-0.829876 1.0942,-0.164533 3.35902,-1.105796 3.3195,0 -0.0864,2.418061 1.43724,3.263066 3.52698,3.112033 1.39667,-0.100942 1.4714,2.541731 1.45228,3.941909 -0.0139,1.018082 -2.8997,2.125318 0.6224,3.112033 0.7766,0.217563 0.84417,1.37475 1.24482,2.074689 0.43047,0.752037 0.78817,1.545714 1.24481,2.282158 0.44485,0.717436 1.6094,1.245279 1.45228,2.074689 -0.26933,1.421767 3.78164,3.58555 5.60166,2.074688 2.12046,-1.760266 2.62316,-0.576819 3.31951,0.829876 0.3929,0.793709 1.52993,1.198623 1.65975,2.074689 0.21837,1.47358 -1.21128,2.728816 -1.65975,4.149377 -0.3636,1.151731 -0.46628,2.37524 -0.82988,3.526971 -0.22424,0.710281 -1.09826,1.379882 -0.82988,2.074689 1.01071,2.616649 -1.69645,3.863364 -2.07469,4.771784 -0.88365,2.122246 0.48668,5.409994 2.6971,5.394191 3.21534,-0.02299 5.02128,1.491197 3.11203,3.526971 -0.79303,0.845583 0.86246,2.173499 1.03735,3.319502 0.0939,0.615283 0.41537,1.403694 0,1.86722 -2.10978,2.35436 -1.0949,4.70311 -0.41494,7.05394 0.52763,1.8242 2.79531,4.8836 1.03734,5.60166 -1.19693,0.4889 -0.82143,0.97087 -0.20746,1.45228 1.5584,1.22193 -1.07581,3.83601 -1.24482,5.80913 -0.12229,1.42765 1.29886,2.692 -0.82987,4.35685 -0.62111,0.48576 -0.63763,1.4938 -0.62241,2.28216 0.0663,3.43572 -3.12257,2.77173 -5.80913,2.69709 -1.39977,-0.0389 -2.56336,1.20641 -3.94191,1.45228 -1.08931,0.19428 -2.56356,-0.80802 -3.3195,0 -0.71027,0.7592 0.30648,2.07712 0.20747,3.11204 -0.12939,1.35253 -0.33893,2.77645 -1.03734,3.94191 -0.67915,1.13332 -1.60069,2.4837 -2.90457,2.69709 -5.67962,0.92952 -4.97451,3.71905 -5.18672,4.97925 z"
     id="path3087"
     style="fill:#b8c6ff;fill-opacity:1;stroke:#000000;stroke-width:1px;stroke-linecap:butt;stroke-linejoin:miter;stroke-opacity:1" />
</svg>
