<svg xmlns="http://www.w3.org/2000/svg" version="1.1" style="font-family:Lato, &#x27;Helvetica Neue&#x27;, Helvetica, Arial, sans-serif;font-size:18px;background-color:white;text-rendering:optimizeLegibility;-webkit-font-smoothing:antialiased" width="850" height="600"><g class="HeaderView"><g transform="translate(774, 15) scale(0.29)"><svg width="210" height="120" viewBox="0 0 210 120" fill="none" xmlns="http://www.w3.org/2000/svg"><defs>
        <clipPath id="clip0">
            <rect width="210" height="120" fill="white"/>
        </clipPath>
    </defs>
</svg></g><a href="https://ourworldindata.org/grapher/life-expectancy-globally-since-1770" style="font-family:&quot;Playfair Display&quot;, Georgia, &quot;Times New Roman&quot;, serif" target="_blank"><text font-size="25.20" x="15.0" y="35.2" fill="#555"><tspan x="15" y="35.160000000000004">Life expectancy by world region</tspan></text></a></g><g class="LineChart"><defs><clipPath id="boundsClip-11"><rect x="72.37" y="0" width="830" height="943.8"></rect></clipPath></defs><g class="AxisBoxView"><g class="HorizontalAxis"><text x="82.4" y="541.9" fill="#666" text-anchor="middle" font-size="16.2">1770</text><text x="155.1" y="541.9" fill="#666" text-anchor="middle" font-size="16.2">1800</text><text x="276.2" y="541.9" fill="#666" text-anchor="middle" font-size="16.2">1850</text><text x="397.3" y="541.9" fill="#666" text-anchor="middle" font-size="16.2">1900</text><text x="518.5" y="541.9" fill="#666" text-anchor="middle" font-size="16.2">1950</text><text x="675.9" y="541.9" fill="#666" text-anchor="middle" font-size="16.2">2015</text></g><g class="VerticalAxis"><text x="77.37" y="520.7" fill="#666" dominant-baseline="middle" text-anchor="end" font-size="16.2">0 years</text><text x="77.37" y="464.8" fill="#666" dominant-baseline="middle" text-anchor="end" font-size="16.2">10 years</text><text x="77.37" y="409" fill="#666" dominant-baseline="middle" text-anchor="end" font-size="16.2">20 years</text><text x="77.37" y="353.1" fill="#666" dominant-baseline="middle" text-anchor="end" font-size="16.2">30 years</text><text x="77.37" y="297.2" fill="#666" dominant-baseline="middle" text-anchor="end" font-size="16.2">40 years</text><text x="77.37" y="241.4" fill="#666" dominant-baseline="middle" text-anchor="end" font-size="16.2">50 years</text><text x="77.37" y="185.5" fill="#666" dominant-baseline="middle" text-anchor="end" font-size="16.2">60 years</text><text x="77.37" y="129.6" fill="#666" dominant-baseline="middle" text-anchor="end" font-size="16.2">70 years</text><text x="77.37" y="73.7" fill="#666" dominant-baseline="middle" text-anchor="end" font-size="16.2">80 years</text></g><g class="AxisGridLines"><line x1="82.37" y1="520.7" x2="675.93" y2="520.7" stroke="#ccc"></line><line x1="82.37" y1="464.8" x2="675.93" y2="464.8" stroke="#ddd" stroke-dasharray="3,2"></line><line x1="82.37" y1="409" x2="675.93" y2="409" stroke="#ddd" stroke-dasharray="3,2"></line><line x1="82.37" y1="353.1" x2="675.93" y2="353.1" stroke="#ddd" stroke-dasharray="3,2"></line><line x1="82.37" y1="297.2" x2="675.93" y2="297.2" stroke="#ddd" stroke-dasharray="3,2"></line><line x1="82.37" y1="241.4" x2="675.93" y2="241.4" stroke="#ddd" stroke-dasharray="3,2"></line><line x1="82.37" y1="185.5" x2="675.93" y2="185.5" stroke="#ddd" stroke-dasharray="3,2"></line><line x1="82.37" y1="129.6" x2="675.93" y2="129.6" stroke="#ddd" stroke-dasharray="3,2"></line><line x1="82.37" y1="73.7" x2="675.93" y2="73.7" stroke="#ddd" stroke-dasharray="3,2"></line></g></g><g clip-path="url(#boundsClip-11)"><g class="HeightedLegend" style="cursor:default"><g class="legendMark"><g class="indicator"><path d="M679.935,70 H703.0778571428572 V76.75 H706.935" stroke="#999" stroke-width="0.5" fill="none"></path></g><rect x="675.935" y="70" width="78.74000000000001" height="13.5" fill="#fff" opacity="0"></rect><text font-size="13.50" x="710.9" y="80.8" fill="#ffd53e"><tspan x="710.935" y="80.8">Europe</tspan></text></g><g class="legendMark"><g class="indicator"><path d="M679.935,87.3 H699.2207142857143 V92.25 H706.935" stroke="#999" stroke-width="0.5" fill="none"></path></g><rect x="675.935" y="85.5" width="85.49000000000001" height="13.5" fill="#fff" opacity="0"></rect><text font-size="13.50" x="710.9" y="96.3" fill="#b077b1"><tspan x="710.935" y="96.3">Oceania</tspan></text></g><g class="legendMark"><g class="indicator"><path d="M679.935,91.1 H695.3635714285714 V107.75 H706.935" stroke="#999" stroke-width="0.5" fill="none"></path></g><rect x="675.935" y="101" width="91.295" height="13.5" fill="#fff" opacity="0"></rect><text font-size="13.50" x="710.9" y="111.8" fill="#34983f"><tspan x="710.935" y="111.8">Americas</tspan></text></g><g class="legendMark"><g class="indicator"><path d="M679.935,118.3 H691.5064285714285 V123.25 H706.935" stroke="#999" stroke-width="0.5" fill="none"></path></g><rect x="675.935" y="116.5" width="61.325" height="13.5" fill="#fff" opacity="0"></rect><text font-size="13.50" x="710.9" y="127.3" fill="#932834"><tspan x="710.935" y="127.3">Asia</tspan></text></g><g class="legendMark"><g class="indicator"><path d="M679.935,121.8 H687.6492857142857 V138.75 H706.935" stroke="#999" stroke-width="0.5" fill="none"></path></g><rect x="675.935" y="132" width="70.235" height="13.5" fill="#fff" opacity="0"></rect><text font-size="13.50" x="710.9" y="142.8" fill="#2a939b"><tspan x="710.935" y="142.8">World</tspan></text></g><g class="legendMark"><g class="indicator"><path d="M679.935,126.5 H683.7921428571428 V154.25 H706.935" stroke="#999" stroke-width="0.5" fill="none"></path></g><rect x="675.935" y="147.5" width="159.065" height="13.5" fill="#fff" opacity="0"></rect><text font-size="13.50" x="710.9" y="158.3" fill="#df3c64"><tspan x="710.935" y="158.3">Former Soviet Union</tspan></text></g><g class="legendMark"><g class="indicator"><path d="M679.935,185.5 H693.435 V185.5 H706.935" stroke="#999" stroke-width="0.5" fill="none"></path></g><rect x="675.935" y="178.75" width="69.56" height="13.5" fill="#fff" opacity="0"></rect><text font-size="13.50" x="710.9" y="189.6" fill="#3360a9"><tspan x="710.935" y="189.55">Africa</tspan></text></g></g><g class="Lines"><rect x="82" y="70" width="594" height="451" fill="rgba(255,255,255,0)" opacity="0"></rect><g class="key-Former-Soviet-Union_0"><path stroke="#df3c64" stroke-linecap="round" d="M82 359L429 317L519 207L574 136L615 135L640 150L642 149L644 150L647 150L649 148L652 148L654 144L657 141L659 140L661 136L664 134L666 131L669 128L671 127L674 127" fill="none" stroke-width="1.5"></path><g fill="#df3c64"><circle cx="82" cy="359" r="2"></circle><circle cx="429" cy="317" r="2"></circle><circle cx="519" cy="207" r="2"></circle><circle cx="574" cy="136" r="2"></circle><circle cx="615" cy="135" r="2"></circle><circle cx="640" cy="150" r="2"></circle><circle cx="642" cy="149" r="2"></circle><circle cx="644" cy="150" r="2"></circle><circle cx="647" cy="150" r="2"></circle><circle cx="649" cy="148" r="2"></circle><circle cx="652" cy="148" r="2"></circle><circle cx="654" cy="144" r="2"></circle><circle cx="657" cy="141" r="2"></circle><circle cx="659" cy="140" r="2"></circle><circle cx="661" cy="136" r="2"></circle><circle cx="664" cy="134" r="2"></circle><circle cx="666" cy="131" r="2"></circle><circle cx="669" cy="128" r="2"></circle><circle cx="671" cy="127" r="2"></circle><circle cx="674" cy="127" r="2"></circle></g></g><g class="key-World_0"><path stroke="#2a939b" stroke-linecap="round" d="M82 359L204 359L325 355L429 330L519 253L574 186L640 150L642 148L644 146L647 145L649 143L652 141L654 139L657 136L659 135L661 132L664 131L666 128L669 127L671 125L674 124L676 122" fill="none" stroke-width="1.5"></path><g fill="#2a939b"><circle cx="82" cy="359" r="2"></circle><circle cx="204" cy="359" r="2"></circle><circle cx="325" cy="355" r="2"></circle><circle cx="429" cy="330" r="2"></circle><circle cx="519" cy="253" r="2"></circle><circle cx="574" cy="186" r="2"></circle><circle cx="640" cy="150" r="2"></circle><circle cx="642" cy="148" r="2"></circle><circle cx="644" cy="146" r="2"></circle><circle cx="647" cy="145" r="2"></circle><circle cx="649" cy="143" r="2"></circle><circle cx="652" cy="141" r="2"></circle><circle cx="654" cy="139" r="2"></circle><circle cx="657" cy="136" r="2"></circle><circle cx="659" cy="135" r="2"></circle><circle cx="661" cy="132" r="2"></circle><circle cx="664" cy="131" r="2"></circle><circle cx="666" cy="128" r="2"></circle><circle cx="669" cy="127" r="2"></circle><circle cx="671" cy="125" r="2"></circle><circle cx="674" cy="124" r="2"></circle><circle cx="676" cy="122" r="2"></circle></g></g><g class="key-Americas_0"><path stroke="#34983f" stroke-linecap="round" d="M82 326L228 326L276 325L325 325L397 292L429 269L519 194L574 152L615 125L640 109L642 107L644 106L647 105L649 103L652 102L654 100L657 99L659 98L661 97L664 100L666 95L669 94L671 93L674 92L676 91" fill="none" stroke-width="1.5"></path><g fill="#34983f"><circle cx="82" cy="326" r="2"></circle><circle cx="228" cy="326" r="2"></circle><circle cx="276" cy="325" r="2"></circle><circle cx="325" cy="325" r="2"></circle><circle cx="397" cy="292" r="2"></circle><circle cx="429" cy="269" r="2"></circle><circle cx="519" cy="194" r="2"></circle><circle cx="574" cy="152" r="2"></circle><circle cx="615" cy="125" r="2"></circle><circle cx="640" cy="109" r="2"></circle><circle cx="642" cy="107" r="2"></circle><circle cx="644" cy="106" r="2"></circle><circle cx="647" cy="105" r="2"></circle><circle cx="649" cy="103" r="2"></circle><circle cx="652" cy="102" r="2"></circle><circle cx="654" cy="100" r="2"></circle><circle cx="657" cy="99" r="2"></circle><circle cx="659" cy="98" r="2"></circle><circle cx="661" cy="97" r="2"></circle><circle cx="664" cy="100" r="2"></circle><circle cx="666" cy="95" r="2"></circle><circle cx="669" cy="94" r="2"></circle><circle cx="671" cy="93" r="2"></circle><circle cx="674" cy="92" r="2"></circle><circle cx="676" cy="91" r="2"></circle></g></g><g class="key-Oceania_0"><path stroke="#b077b1" stroke-linecap="round" d="M325 327L397 255L429 236L519 167L574 140L615 114L640 105L642 103L644 101L647 100L649 98L652 96L654 95L657 93L659 93L661 92L664 91L666 90L669 89L671 88L674 87" fill="none" stroke-width="1.5"></path><g fill="#b077b1"><circle cx="325" cy="327" r="2"></circle><circle cx="397" cy="255" r="2"></circle><circle cx="429" cy="236" r="2"></circle><circle cx="519" cy="167" r="2"></circle><circle cx="574" cy="140" r="2"></circle><circle cx="615" cy="114" r="2"></circle><circle cx="640" cy="105" r="2"></circle><circle cx="642" cy="103" r="2"></circle><circle cx="644" cy="101" r="2"></circle><circle cx="647" cy="100" r="2"></circle><circle cx="649" cy="98" r="2"></circle><circle cx="652" cy="96" r="2"></circle><circle cx="654" cy="95" r="2"></circle><circle cx="657" cy="93" r="2"></circle><circle cx="659" cy="93" r="2"></circle><circle cx="661" cy="92" r="2"></circle><circle cx="664" cy="91" r="2"></circle><circle cx="666" cy="90" r="2"></circle><circle cx="669" cy="89" r="2"></circle><circle cx="671" cy="88" r="2"></circle><circle cx="674" cy="87" r="2"></circle></g></g><g class="key-Europe_0"><path stroke="#ffd53e" stroke-linecap="round" d="M82 329L155 335L204 322L276 318L325 319L397 282L429 259L519 159L574 125L615 106L640 90L642 88L644 87L647 87L649 84L652 83L654 81L657 80L659 78L661 77L664 75L666 72L669 72L671 70L674 70" fill="none" stroke-width="1.5"></path><g fill="#ffd53e"><circle cx="82" cy="329" r="2"></circle><circle cx="155" cy="335" r="2"></circle><circle cx="204" cy="322" r="2"></circle><circle cx="276" cy="318" r="2"></circle><circle cx="325" cy="319" r="2"></circle><circle cx="397" cy="282" r="2"></circle><circle cx="429" cy="259" r="2"></circle><circle cx="519" cy="159" r="2"></circle><circle cx="574" cy="125" r="2"></circle><circle cx="615" cy="106" r="2"></circle><circle cx="640" cy="90" r="2"></circle><circle cx="642" cy="88" r="2"></circle><circle cx="644" cy="87" r="2"></circle><circle cx="647" cy="87" r="2"></circle><circle cx="649" cy="84" r="2"></circle><circle cx="652" cy="83" r="2"></circle><circle cx="654" cy="81" r="2"></circle><circle cx="657" cy="80" r="2"></circle><circle cx="659" cy="78" r="2"></circle><circle cx="661" cy="77" r="2"></circle><circle cx="664" cy="75" r="2"></circle><circle cx="666" cy="72" r="2"></circle><circle cx="669" cy="72" r="2"></circle><circle cx="671" cy="70" r="2"></circle><circle cx="674" cy="70" r="2"></circle></g></g><g class="key-Asia_0"><path stroke="#932834" stroke-linecap="round" d="M82 367L349 367L397 364L429 364L519 288L574 199L615 160L640 142L642 140L644 138L647 136L649 134L652 132L654 131L657 129L659 127L661 126L664 124L666 123L669 121L671 120L674 118" fill="none" stroke-width="1.5"></path><g fill="#932834"><circle cx="82" cy="367" r="2"></circle><circle cx="349" cy="367" r="2"></circle><circle cx="397" cy="364" r="2"></circle><circle cx="429" cy="364" r="2"></circle><circle cx="519" cy="288" r="2"></circle><circle cx="574" cy="199" r="2"></circle><circle cx="615" cy="160" r="2"></circle><circle cx="640" cy="142" r="2"></circle><circle cx="642" cy="140" r="2"></circle><circle cx="644" cy="138" r="2"></circle><circle cx="647" cy="136" r="2"></circle><circle cx="649" cy="134" r="2"></circle><circle cx="652" cy="132" r="2"></circle><circle cx="654" cy="131" r="2"></circle><circle cx="657" cy="129" r="2"></circle><circle cx="659" cy="127" r="2"></circle><circle cx="661" cy="126" r="2"></circle><circle cx="664" cy="124" r="2"></circle><circle cx="666" cy="123" r="2"></circle><circle cx="669" cy="121" r="2"></circle><circle cx="671" cy="120" r="2"></circle><circle cx="674" cy="118" r="2"></circle></g></g><g class="key-Africa_0"><path stroke="#3360a9" stroke-linecap="round" d="M82 373L458 373L519 322L574 259L615 225L640 238L642 236L644 234L647 232L649 229L652 225L654 220L657 216L659 211L661 206L664 202L666 199L669 196L671 192L674 189L676 186" fill="none" stroke-width="1.5"></path><g fill="#3360a9"><circle cx="82" cy="373" r="2"></circle><circle cx="458" cy="373" r="2"></circle><circle cx="519" cy="322" r="2"></circle><circle cx="574" cy="259" r="2"></circle><circle cx="615" cy="225" r="2"></circle><circle cx="640" cy="238" r="2"></circle><circle cx="642" cy="236" r="2"></circle><circle cx="644" cy="234" r="2"></circle><circle cx="647" cy="232" r="2"></circle><circle cx="649" cy="229" r="2"></circle><circle cx="652" cy="225" r="2"></circle><circle cx="654" cy="220" r="2"></circle><circle cx="657" cy="216" r="2"></circle><circle cx="659" cy="211" r="2"></circle><circle cx="661" cy="206" r="2"></circle><circle cx="664" cy="202" r="2"></circle><circle cx="666" cy="199" r="2"></circle><circle cx="669" cy="196" r="2"></circle><circle cx="671" cy="192" r="2"></circle><circle cx="674" cy="189" r="2"></circle><circle cx="676" cy="186" r="2"></circle></g></g></g></g></g><g class="SourcesFooter" style="fill:#777"><g class="clickable" style="fill:#777"><text font-size="12.60" x="15.0" y="567.0"><tspan x="15" y="566.98">Source: Life expectancy – James Riley for data 1990 and earlier; WHO and World Bank for later data (by Max Roser)</tspan></text></g><text font-size="12.60" x="15.0" y="582.5"><tspan x="15" y="582.48"><a target='_blank' style='fill: #777;' href='https://ourworldindata.org/life-expectancy/'>OurWorldInData.org/life-expectancy/</a> • <a style="fill: #777;" class="cclogo" href="http://creativecommons.org/licenses/by/4.0/deed.en_US" target="_blank">CC BY</a></tspan></text></g></svg>