<?xml version="1.0" encoding="utf-8"?>
<!-- Generator: Adobe Illustrator 27.0.1, SVG Export Plug-In . SVG Version: 6.00 Build 0)  -->
<!DOCTYPE svg PUBLIC "-//W3C//DTD SVG 1.1//EN" "http://www.w3.org/Graphics/SVG/1.1/DTD/svg11.dtd" [
	<!ENTITY ns_extend "http://ns.adobe.com/Extensibility/1.0/">
	<!ENTITY ns_ai "http://ns.adobe.com/AdobeIllustrator/10.0/">
	<!ENTITY ns_graphs "http://ns.adobe.com/Graphs/1.0/">
	<!ENTITY ns_vars "http://ns.adobe.com/Variables/1.0/">
	<!ENTITY ns_imrep "http://ns.adobe.com/ImageReplacement/1.0/">
	<!ENTITY ns_sfw "http://ns.adobe.com/SaveForWeb/1.0/">
	<!ENTITY ns_custom "http://ns.adobe.com/GenericCustomNamespace/1.0/">
	<!ENTITY ns_adobe_xpath "http://ns.adobe.com/XPath/1.0/">
]>
<svg version="1.1"
	 id="svg2" xmlns:x="&ns_extend;" xmlns:i="&ns_ai;" xmlns:graph="&ns_graphs;" xmlns:svg="http://www.w3.org/2000/svg" xmlns:ns0="http://www.iki.fi/pav/software/textext/" xmlns:inkscape="http://www.inkscape.org/namespaces/inkscape" xmlns:rdf="http://www.w3.org/1999/02/22-rdf-syntax-ns#" xmlns:dc="http://purl.org/dc/elements/1.1/" xmlns:sodipodi="http://sodipodi.sourceforge.net/DTD/sodipodi-0.dtd" xmlns:cc="http://creativecommons.org/ns#"
	 xmlns="http://www.w3.org/2000/svg" xmlns:xlink="http://www.w3.org/1999/xlink" x="0px" y="0px" viewBox="0 0 881 279.6"
	 style="enable-background:new 0 0 881 279.6;" xml:space="preserve">
<style type="text/css">
	.st0{fill:none;stroke:#7B7B7B;stroke-width:4;}
	.st1{fill:none;stroke:#000000;stroke-width:1.5811;}
	.st2{fill:none;stroke:#000000;}
	.st3{fill:#E3E3E3;stroke:#000000;stroke-width:1.3695;stroke-linecap:round;stroke-linejoin:bevel;}
	.st4{fill:#E3E3E3;stroke:#000000;stroke-width:1.1;}
	.st5{font-family:'ArialMT';}
	.st6{font-size:18.0645px;}
	.st7{font-size:15.9928px;}
	.st8{fill:#E3E3E3;stroke:#000000;stroke-width:1.069;}
	.st9{fill-rule:evenodd;clip-rule:evenodd;fill:#FFFFFF;stroke:#000000;stroke-linecap:round;stroke-linejoin:bevel;}
	.st10{font-size:17.3176px;}
</style>
<metadata  id="metadata7">
	<rdf:RDF>
		<cc:Work  rdf:about="">
			<dc:format>image/svg+xml</dc:format>
			<dc:type  rdf:resource="http://purl.org/dc/dcmitype/StillImage"></dc:type>
			<dc:title></dc:title>
		</cc:Work>
	</rdf:RDF>
	<sfw  xmlns="&ns_sfw;">
		<slices></slices>
		<sliceSourceBounds  bottomLeftOrigin="true" height="256.8" width="861" x="10" y="12.5"></sliceSourceBounds>
	</sfw>
</metadata>
<symbol  id="textext-61dcf2fd-0" viewBox="-2.8 -5.5 5.5 11.1">
	<path id="path4322_00000032623439839450183700000000778211941240547716_" inkscape:connector-curvature="0" d="M-0.6,3.2
		c-0.1,1.6-0.5,2.1-1.1,2.1c-0.1,0-0.4,0-0.6-0.2c0.3,0,0.4-0.3,0.4-0.4c0-0.3-0.2-0.4-0.4-0.4c-0.2,0-0.4,0.1-0.4,0.4
		c0,0.5,0.5,0.8,1.1,0.8c1,0,1.4-0.9,1.6-1.8c0.1-0.5,0.5-3.4,0.6-4.5l0.2-2.5c0.1-1.8,0.5-2.1,0.9-2.1c0.1,0,0.4,0,0.6,0.2
		C2-5.1,1.9-4.8,1.9-4.7c0,0.3,0.2,0.4,0.4,0.4c0.2,0,0.4-0.1,0.4-0.4c0-0.5-0.5-0.8-1.1-0.8c-0.9,0-1.3,1-1.5,1.7
		C0-3.3-0.3-0.5-0.4,0.8L-0.6,3.2z"/>
</symbol>
<symbol  id="textext-61dcf2fd-1" viewBox="-2.5 -3.5 4.9 7">
	<path id="path4325_00000176733071865116554500000005025218785884139676_" inkscape:connector-curvature="0" d="M1,2.9v0.7l1.5-0.1
		V3.1C1.8,3.1,1.7,3,1.7,2.5v-6L0.2-3.4v0.3C0.9-3.1,1-3,1-2.5v2.2C0.7-0.7,0.3-1-0.2-1c-1.2,0-2.2,1-2.2,2.3c0,1.3,1,2.2,2.1,2.2
		C0.3,3.5,0.7,3.2,1,2.9z M1,0.2v2c0,0.2,0,0.2-0.1,0.4C0.6,3.1,0.1,3.3-0.3,3.3c-0.5,0-0.8-0.3-1-0.6c-0.2-0.4-0.3-1-0.3-1.4
		c0-0.4,0-1,0.3-1.4c0.2-0.3,0.6-0.6,1.1-0.6c0.3,0,0.8,0.2,1.1,0.6C1,0,1,0,1,0.2z"/>
</symbol>
<symbol  id="textext-61dcf2fd-2" viewBox="-1.5 -3.2 3.1 6.3">
	<path id="path4328_00000127008156182257156390000011344597246129583010_" inkscape:connector-curvature="0" d="M0.3-0.9h0.9
		c0.2,0,0.3,0,0.3-0.2c0-0.1-0.1-0.1-0.3-0.1H0.4c0.4-1.4,0.4-1.6,0.4-1.7c0-0.2-0.1-0.3-0.3-0.3c0,0-0.3,0-0.4,0.4l-0.4,1.6h-0.9
		c-0.2,0-0.3,0-0.3,0.2c0,0.1,0.1,0.1,0.3,0.1h0.9c-0.7,2.8-0.8,3-0.8,3.2c0,0.5,0.4,0.9,0.9,0.9c1,0,1.6-1.5,1.6-1.5
		c0-0.1-0.1-0.1-0.1-0.1c-0.1,0-0.1,0-0.2,0.1C0.7,2.7,0.1,3-0.2,3c-0.2,0-0.3-0.1-0.3-0.5c0-0.2,0-0.3,0.1-0.5L0.3-0.9z"/>
</symbol>
<symbol  id="textext-7cd88e86-0" viewBox="-3.7 -3.6 7.4 7.1">
	<path id="path4087_00000044151377988119222030000016925966263616684439_" inkscape:connector-curvature="0" d="M0.3-3.4
		C0.2-3.5,0.2-3.6,0-3.6c-0.2,0-0.2,0-0.2,0.2l-3.4,6.8c0,0.1,0,0.1,0,0.1c0,0.1,0.1,0.1,0.2,0.1h6.9c0.2,0,0.2,0,0.2-0.1
		c0,0,0,0,0-0.1L0.3-3.4z M-0.3-2.6l2.7,5.4H-3L-0.3-2.6z"/>
</symbol>
<symbol  id="textext-7cd88e86-1" viewBox="-2.8 -3.3 5.7 6.6">
	<path id="path4090_00000056425469159215168760000009562622912236618627_" inkscape:connector-curvature="0" d="M-1.6,2.8
		c0,0.1,0,0.2,0,0.2c0,0.2,0.2,0.3,0.3,0.3c0,0,0.3,0,0.4-0.3C-1,2.9-1,2.6-0.7,1.2c0.1,0,0.2,0,0.3,0c1.7,0,3.2-1.6,3.2-3.1
		c0-0.8-0.4-1.4-1.1-1.4c-1.4,0-2,1.9-2.6,3.9C-2,0.4-2.6-0.2-2.6-0.9c0-0.3,0.2-1.4,0.8-2.1C-1.7-3-1.7-3.1-1.7-3.1s0-0.1-0.1-0.1
		c-0.3,0-1,1.5-1,2.4c0,0.9,0.7,1.7,1.7,1.9L-1.6,2.8z M-0.3,0.6c-0.1,0-0.1,0-0.2,0c-0.1,0-0.1,0-0.1,0c0,0,0.2-0.9,0.2-1.1
		c0.3-1.3,1.1-2.2,2-2.2c0.7,0,1,0.5,1,1C2.6-0.6,1.3,0.6-0.3,0.6z"/>
</symbol>
<symbol  id="textext-d2e4d0ed-0" viewBox="-3.3 -3.3 6.7 6.6">
	<path id="path4200_00000166652934916989151070000017063314804569929355_" inkscape:connector-curvature="0" d="M3.3,0
		c0-1.8-1.5-3.3-3.3-3.3c-1.8,0-3.3,1.5-3.3,3.3c0,1.8,1.5,3.3,3.3,3.3C1.8,3.3,3.3,1.8,3.3,0z M-2-2.1c0,0-0.1-0.1-0.1-0.1
		S-1.3-3.1,0-3.1c0.3,0,1.3,0,2.1,0.8L0-0.2L-2-2.1z M-2.3,2.1C-2.9,1.4-3.1,0.6-3.1,0c0-0.8,0.3-1.5,0.8-2.1L-0.2,0L-2.3,2.1z
		 M2.2-2.1C2.7-1.6,3.1-0.8,3.1,0c0,0.8-0.3,1.5-0.8,2.1L0.2,0L2.2-2.1z M2,2.1c0,0,0.1,0.1,0.1,0.1S1.3,3.1,0,3.1
		c-0.3,0-1.3,0-2.1-0.8L0,0.2L2,2.1z"/>
</symbol>
<sodipodi:namedview  bordercolor="#666666" borderopacity="1.0" fit-margin-bottom="10" fit-margin-left="10" fit-margin-right="10" fit-margin-top="10" id="base" inkscape:current-layer="layer1" inkscape:cx="383.47025" inkscape:cy="118.88484" inkscape:document-units="px" inkscape:pageopacity="0.0" inkscape:pageshadow="2" inkscape:snap-midpoints="false" inkscape:window-height="829" inkscape:window-maximized="1" inkscape:window-width="1440" inkscape:window-x="-2" inkscape:window-y="-3" inkscape:zoom="0.98994949" pagecolor="#ffffff" showgrid="true">
	<inkscape:grid  empspacing="5" enabled="true" id="grid2985" snapvisiblegridlinesonly="true" type="xygrid" visible="true">
		</inkscape:grid>
</sodipodi:namedview>
<defs>
	
		<inkscape:path-effect  bendpath="m 79.711635,375.44703 130.288365,0" effect="bend_path" id="path-effect3011" is_visible="true" prop_scale="1" scale_y_rel="false" vertical="false">
		</inkscape:path-effect>
</defs>
<path id="path3084-0" inkscape:connector-curvature="0" sodipodi:nodetypes="ccc" class="st0" d="M15.5,28.9h415v105"/>
<path id="path3084" inkscape:connector-curvature="0" sodipodi:nodetypes="ccc" class="st0" d="M15.5,223.9h415v-75"/>
<path id="path2987-1" inkscape:connector-curvature="0" sodipodi:nodetypes="cczzzcc" class="st1" d="M24.4,227.9
	c4.3-5.9,7.2-14,15.1-14c7.8,0,12.5,20,25,20s12.5-20,25-20s12.5,20,25,20s12.5-20,25-20c7.8,0,10.8,7.8,14.9,13.7"/>
<path id="path3019" inkscape:connector-curvature="0" sodipodi:nodetypes="cccccccccccccccccccccccccccccccccccccccccccccccccccccccccccccccccccccccccccccccccccccccccccccccccccccccccccccccccccccccccccccccccccc" class="st2" d="
	M24.6,16.3l1.2,3.8l0.9,4l0.1,0.6l1.1-3l0.9-3.7l1.5-3.9l1.6-3.7v0.6v1.8v6.3l-0.3,2.9l0.1-1.4l1-4.2l0.6-0.6l0.6,4.5l1.3,5.2l1,3.5
	l0.3-1.4v-2.5v-1.1l-0.5,7.2v1.9v1.4l2.9-6.7l1-2.1l0.1-0.3v2.8v7.2l0.3,3.3l0.1-0.5l0.6-4.7l0.5-1.5V34l0.3,1.8l1,2l2.4-6.2l0.4,3
	l1.4,7.2l0.4-0.9l0.6-2.8l0.3-0.9l0.8,3.3l2.3-3.9l0.9-2.5l0.3-0.9l1.4,5.7l1.4-6.2l2.4,3.5l0.8-7.4l1.9-6.1l1.9,3.2l0.1-0.6
	l0.4-1.3l0.5-1.8l2.7-6.4l1,4.8l1-1.5l2.4-4.4l3-1.3l0.1,4.7l0.9-1.3l1.5-4.7l0.4-1l0.1,8.1l3.9-3.7l1.6,7.1l3.8-6.1l0.6,13.6
	l0.4-0.5l2-3.3l2.3,7.2l0.9,1.5l0.6-1.5l1.5-2.7l0.3-0.5l1.3,7.2l0.6,1.9l1.4-5.2l1.9,2.5l1.8,2.9l0.5-1.1l3.8-6.6l1.3,5.7l0.5,0.9
	l2.9-8.3l2,0.1l0.4-1.1l0.5-1.4l0.8-1l2-3l0.1,2.4v1.1l1.1-4.8l1-5.4l0.4,0.5l1,3.3l2.3-5.7l1.5-2l0.5-0.9L124,14l0.3,5.6l0.4-0.6
	l0.6-2.3l1.1-4.4l0.4,3.2l0.3,5.1l0.1,1l1-3.3l0.8-1.6l1.5,4.8l1.1,3.5l0.5,1l0.1,0.5l1.6-5.3l0.6-1.3l0.1-0.1l0.4,3.4l1.3,6.3
	l1.3-3l2,6.2l1.1,2.4l1.1-3.3l0.3-0.5l1.8,6.4l0.6-0.5L145,35l2.9,4l0.6-2.3l1.8,0.4l1-0.3l-1.7-0.6"/>
<path id="path3019-4" inkscape:connector-curvature="0" sodipodi:nodetypes="cccccccccccccccccccccccccccccccccccccccccccccccccccccccccccccccccccccccccccccccccccccccccccccccccccccccccccccccccccccccccccccccccccc" class="st2" d="
	M295.6,16.3l1.2,3.8l0.9,4l0.1,0.6l1.1-3l0.9-3.7l1.5-3.9l1.6-3.7v0.6v1.8v6.3l-0.3,2.9l0.1-1.4l1-4.2l0.6-0.6l0.6,4.5l1.3,5.2
	l1,3.5l0.3-1.4v-2.5v-1.1l-0.5,7.2v1.9v1.4l2.9-6.7l1-2.1l0.1-0.3v2.8v7.2l0.3,3.3l0.1-0.5l0.6-4.7l0.5-1.5V34l0.3,1.8l1,2l2.4-6.2
	l0.4,3l1.4,7.2l0.4-0.9l0.6-2.8l0.3-0.9l0.8,3.3l2.3-3.9l0.9-2.5l0.3-0.9l1.4,5.7l1.4-6.2l2.4,3.5l0.8-7.4l1.9-6.1l1.9,3.2l0.1-0.6
	l0.4-1.3l0.5-1.8l2.7-6.4l1,4.8l1-1.5l2.4-4.4l3-1.3l0.1,4.7l0.9-1.3l1.5-4.7l0.4-1l0.1,8.1l3.9-3.7l1.6,7.1l3.8-6.1l0.6,13.6
	l0.4-0.5l2-3.3l2.3,7.2l0.9,1.5l0.6-1.5l1.5-2.7l0.3-0.5l1.3,7.2l0.6,1.9l1.4-5.2l1.9,2.5l1.8,2.9l0.5-1.1l3.8-6.6l1.3,5.7l0.5,0.9
	l2.9-8.3l2,0.1l0.4-1.1l0.5-1.4l0.8-1l2-3l0.1,2.4v1.1l1.1-4.8l1-5.4l0.4,0.5l1,3.3l2.3-5.7l1.5-2l0.5-0.9L395,14l0.3,5.6l0.4-0.6
	l0.6-2.3l1.1-4.4l0.4,3.2l0.3,5.1l0.1,1l1-3.3l0.8-1.6l1.5,4.8l1.1,3.5l0.5,1l0.1,0.5l1.6-5.3l0.6-1.3l0.1-0.1l0.4,3.4l1.3,6.3
	l1.3-3l2,6.2l1.1,2.4l1.1-3.3l0.3-0.5l1.8,6.4l0.6-0.5L416,35l2.9,4l0.6-2.3l1.8,0.4l1-0.3l-1.7-0.6"/>
<path id="path2987-9" inkscape:connector-curvature="0" sodipodi:nodetypes="cczzzc" class="st1" d="M295.5,213.9
	c12.5,0,12.5,20,25,20c7.8,0,12.5-20,25-20s12.5,20,25,20s12.5-20,25-20s12.5,20,25,20"/>
<path id="path3082" inkscape:connector-curvature="0" sodipodi:nodetypes="ccccccccccccccccccccccccccccccccccccccccccccccccccccccccccccccccccccccccccccc" class="st2" d="
	M511.9,129.3l0-2.4l1.3-4.8l0.3-7.6l0.8-3.8l0.8-5.1v-0.5l0.3,2l3-5.3l1.8,5.6l1.8-2.5l0.3,6.6l1.5,3.5l1.5,7.1l1.3,2.5l5.1-9.6
	l2.5-5.1l0.5-2.3l0.8,1l1.8-3.3l0.5,3.3l1.8-4l1.3,6.8l1.5,2.8l1.3,5.1l0.8,0.5l2.3,5.1l4.5-1.8l1.3-1.8l2-6.6l1-4.3l0.8,0.5
	l2.3-5.3l3-2.8l1.5-2.8l0.8,1.5l2.8,4.3l4.3,7.3l2,3v3.5l2.5,7.1l3.5-2l1-4.5l0.3-3l1.5-2.5l1.3-4.5l1.3-1l1-4.3l2,0.3l2-4.5
	l2.3,1.8h3.5l0.8,5.6l3.8,7.1l1.5,7.3l0.8,3.5l2.8-3l1-0.5l0.5-4.3l1-1.3l1-5.6l1.3-1.8l1.8-6.1l1.8,1.5l2-3.3h2l0.8-1.8l2,3.8
	l4.3,7.3l0.5,3.3l2,4.3v1.5l1.8,4.8l5.5,5l1.3-8.8l1.5-3.8l0.5-3.1"/>
<rect id="rect3872" x="164.9" y="181.4" class="st3" width="117.2" height="85"/>
<path id="path3084-1" inkscape:connector-curvature="0" sodipodi:nodetypes="cc" class="st0" d="M490.5,128.9h375"/>
<rect id="rect3872-7" x="642.7" y="86.4" class="st4" width="95.7" height="85"/>
<path id="path3082-7" inkscape:connector-curvature="0" sodipodi:nodetypes="cc" class="st2" d="M740.5,113.9h115"/>
<text transform="matrix(1 0 0 1 35.7146 57.3168)" class="st5 st6">Messy signal</text>
<text transform="matrix(1 0 0 1 772.5 144.8903)" class="st5 st7">DC-Signal</text>
<rect id="rect3872-9" x="361.4" y="86.4" class="st8" width="138.2" height="85"/>
<path id="path3999" sodipodi:cx="255" sodipodi:cy="497.36218" sodipodi:rx="5" sodipodi:ry="5" sodipodi:type="arc" class="st9" d="
	M20.5,223.9c0,2.8-2.2,5-5,5c-2.8,0-5-2.2-5-5s2.2-5,5-5C18.3,218.9,20.5,221.1,20.5,223.9z"/>
<path id="path3999-1" sodipodi:cx="255" sodipodi:cy="497.36218" sodipodi:rx="5" sodipodi:ry="5" sodipodi:type="arc" class="st9" d="
	M20.5,28.9c0,2.8-2.2,5-5,5c-2.8,0-5-2.2-5-5s2.2-5,5-5C18.3,23.9,20.5,26.1,20.5,28.9z"/>
<path id="path3999-15" sodipodi:cx="255" sodipodi:cy="497.36218" sodipodi:rx="5" sodipodi:ry="5" sodipodi:type="arc" class="st9" d="
	M870.5,128.9c0,2.8-2.2,5-5,5s-5-2.2-5-5s2.2-5,5-5S870.5,126.1,870.5,128.9z"/>
<g>
	<text transform="matrix(1 0 0 1 172.8425 246.4388)" class="st5 st10">Phase shifter</text>
	<g id="g4080" transform="matrix(3.2558378,0,0,3.2558378,-291.76153,45.11743)" ns0:preamble="" ns0:text="$\\Delta \\varphi$">
		<g id="textext-7cd88e86-2">
			<g id="g4093">
				
					<use xlink:href="#textext-7cd88e86-0"  width="7.4" height="7.1" id="use4095" x="-3.7" y="-3.6" transform="matrix(1 0 0 1 154.9349 49.8259)" style="overflow:visible;"/>
			</g>
			<g id="g4097">
				
					<use xlink:href="#textext-7cd88e86-1"  width="5.7" height="6.6" id="use4099" x="-2.8" y="-3.3" transform="matrix(1 0 0 1 162.4243 52.2791)" style="overflow:visible;"/>
			</g>
		</g>
	</g>
</g>
<g>
	<text transform="matrix(1 0 0 1 395.7354 150.0132)" class="st5 st10">Multiplier</text>
	<g id="g4193" transform="matrix(3.2558378,0,0,3.2558378,-70.369998,-41.355662)" ns0:preamble="" ns0:text="$\\otimes$">
		<g id="textext-d2e4d0ed-1">
			<g id="g4203">
				
					<use xlink:href="#textext-d2e4d0ed-0"  width="6.7" height="6.6" id="use4205" x="-3.3" y="-3.3" transform="matrix(1 0 0 1 153.8375 47.3948)" style="overflow:visible;"/>
			</g>
		</g>
	</g>
</g>
<g>
	<text transform="matrix(1 0 0 1 651.0283 140.873)" class="st5 st10">Low-pass/</text>
	<text transform="matrix(1 0 0 1 651.0283 162.52)" class="st5 st10">Integrator</text>
	<g id="g4315" transform="matrix(3.2558378,0,0,3.2558378,168.43385,-47.514834)" ns0:preamble="" ns0:text="$\\int \\mbox{d}t$">
		<g id="textext-61dcf2fd-3">
			<g id="g4331">
				
					<use xlink:href="#textext-61dcf2fd-0"  width="5.5" height="11.1" id="use4333" x="-2.8" y="-5.5" transform="matrix(1 0 0 1 153.1921 47.6641)" style="overflow:visible;"/>
			</g>
			<g id="g4335">
				
					<use xlink:href="#textext-61dcf2fd-1"  width="4.9" height="7" id="use4337" x="-2.5" y="-3.5" transform="matrix(1 0 0 1 160.9707 46.7448)" style="overflow:visible;"/>
			</g>
			<g id="g4339">
				
					<use xlink:href="#textext-61dcf2fd-2"  width="3.1" height="6.3" id="use4341" x="-1.5" y="-3.2" transform="matrix(1 0 0 1 165.4744 47.0886)" style="overflow:visible;"/>
			</g>
		</g>
	</g>
</g>
<g>
	<text transform="matrix(1 0 0 1 47.7303 186.347)" class="st5 st6">Reference</text>
	<text transform="matrix(1 0 0 1 65.8036 208.0243)" class="st5 st6">signal</text>
</g>
</svg>
