<?xml version="1.0" encoding="UTF-8" standalone="no"?>
<!-- Created with Inkscape (http://www.inkscape.org/) -->
<svg xmlns:dc="http://purl.org/dc/elements/1.1/" xmlns:cc="http://web.resource.org/cc/" xmlns:rdf="http://www.w3.org/1999/02/22-rdf-syntax-ns#" xmlns:svg="http://www.w3.org/2000/svg" xmlns="http://www.w3.org/2000/svg" xmlns:sodipodi="http://inkscape.sourceforge.net/DTD/sodipodi-0.dtd" xmlns:inkscape="http://www.inkscape.org/namespaces/inkscape" width="612.00000pt" height="792.00000pt" id="svg2" sodipodi:version="0.32" inkscape:version="0.42.2" sodipodi:docbase="/home/rob/wikipedia" sodipodi:docname="preference.svg">
  <defs id="defs4"/>
  <sodipodi:namedview id="base" pagecolor="#ffffff" bordercolor="#666666" borderopacity="1.0" inkscape:pageopacity="0.0" inkscape:pageshadow="2" inkscape:zoom="0.36441826" inkscape:cx="782.81791" inkscape:cy="498.63512" inkscape:document-units="px" inkscape:current-layer="layer1" fill="#990000" inkscape:window-width="1280" inkscape:window-height="932" inkscape:window-x="0" inkscape:window-y="25"/>
  <metadata id="metadata7">
    <rdf:RDF>
      <cc:Work rdf:about="">
        <dc:format>image/svg+xml</dc:format>
        <dc:type rdf:resource="http://purl.org/dc/dcmitype/StillImage"/>
      </cc:Work>
    </rdf:RDF>
  </metadata>
  <g inkscape:label="Layer 1" inkscape:groupmode="layer" id="layer1">
    <rect style="fill: rgb(255, 255, 255); fill-opacity: 1; stroke: none; stroke-width: 1.01249; stroke-miterlimit: 4; stroke-dasharray: none; stroke-opacity: 1;" id="rect2494" width="762.56592" height="991.52972" x="2.8909836" y="3.0413342"/>
    <switch style="font-size: 54.4988px; font-style: normal; font-variant: normal; font-weight: normal; font-stretch: normal; text-align: start; line-height: 125%; text-anchor: start; fill: rgb(0, 0, 0); fill-opacity: 1; stroke: none; stroke-width: 1px; stroke-linecap: butt; stroke-linejoin: miter; stroke-opacity: 1; font-family: Verdana;"><text xml:space="preserve" style="font-size: 54.4988px; font-style: normal; font-variant: normal; font-weight: normal; font-stretch: normal; text-align: start; line-height: 125%; text-anchor: start; fill: rgb(0, 0, 0); fill-opacity: 1; stroke: none; stroke-width: 1px; stroke-linecap: butt; stroke-linejoin: miter; stroke-opacity: 1; font-family: Verdana;" x="265.303" y="348.707" id="text3107" sodipodi:linespacing="125.00000%"><tspan sodipodi:role="line" id="tspan3109" x="265.303" y="348.707">Joe Smith</tspan><tspan sodipodi:role="line" x="265.303" y="484.954" id="tspan3113">John Citizen</tspan><tspan sodipodi:role="line" x="265.303" y="621.201" id="tspan3117">Jane Doe</tspan><tspan sodipodi:role="line" x="265.303" y="757.448" id="tspan3121">Fred Rubble</tspan><tspan sodipodi:role="line" x="265.303" y="893.694" id="tspan3125">Mary Hill</tspan></text></switch>
    <rect style="fill: rgb(255, 255, 255); stroke: rgb(126, 126, 126); stroke-width: 3.19726; stroke-miterlimit: 4; stroke-dasharray: none; stroke-opacity: 1;" id="rect3127" width="90.831253" height="90.831253" x="127.84682" y="282.66522"/>
    <rect y="419.72299" x="127.84682" height="90.831253" width="90.831253" id="rect3129" style="fill: rgb(255, 255, 255); stroke: rgb(126, 126, 126); stroke-width: 3.19726; stroke-miterlimit: 4; stroke-dasharray: none; stroke-opacity: 1;"/>
    <rect style="fill: rgb(255, 255, 255); stroke: rgb(126, 126, 126); stroke-width: 3.19726; stroke-miterlimit: 4; stroke-dasharray: none; stroke-opacity: 1;" id="rect3131" width="90.831253" height="90.831253" x="127.84682" y="556.78119"/>
    <rect y="693.83887" x="127.84682" height="90.831253" width="90.831253" id="rect3133" style="fill: rgb(255, 255, 255); stroke: rgb(126, 126, 126); stroke-width: 3.19726; stroke-miterlimit: 4; stroke-dasharray: none; stroke-opacity: 1;"/>
    <rect style="fill: rgb(255, 255, 255); stroke: rgb(126, 126, 126); stroke-width: 3.19726; stroke-miterlimit: 4; stroke-dasharray: none; stroke-opacity: 1;" id="rect3135" width="90.831253" height="90.831253" x="127.84682" y="830.89673"/>
    <switch style="font-size: 54.4988px; font-style: normal; font-variant: normal; font-weight: bold; font-stretch: normal; text-align: start; line-height: 125%; text-anchor: start; fill: rgb(0, 0, 0); fill-opacity: 1; stroke: none; stroke-width: 1px; stroke-linecap: butt; stroke-linejoin: miter; stroke-opacity: 1; font-family: Verdana;"><text xml:space="preserve" style="font-size: 54.4988px; font-style: normal; font-variant: normal; font-weight: bold; font-stretch: normal; text-align: start; line-height: 125%; text-anchor: start; fill: rgb(0, 0, 0); fill-opacity: 1; stroke: none; stroke-width: 1px; stroke-linecap: butt; stroke-linejoin: miter; stroke-opacity: 1; font-family: Verdana;" x="65.0622" y="85.8476" id="text3393-vi" sodipodi:linespacing="125.00000%" systemLanguage="vi"><tspan sodipodi:role="line" x="65.0622" y="85.8476" id="tspan3481-vi">Xếp hạng ứng viên theo</tspan><tspan sodipodi:role="line" x="65.0622" y="153.971" id="tspan3489-vi">thứ tự ưa thích (bao</tspan><tspan sodipodi:role="line" x="65.0622" y="222.094" id="tspan3491-vi">nhiêu ứng viên tùy ý).</tspan></text><text xml:space="preserve" style="font-size: 54.4988px; font-style: normal; font-variant: normal; font-weight: bold; font-stretch: normal; text-align: start; line-height: 125%; text-anchor: start; fill: rgb(0, 0, 0); fill-opacity: 1; stroke: none; stroke-width: 1px; stroke-linecap: butt; stroke-linejoin: miter; stroke-opacity: 1; font-family: Verdana;" x="65.0622" y="85.8476" id="text3393" sodipodi:linespacing="125.00000%"><tspan sodipodi:role="line" x="65.0622" y="85.8476" id="tspan3481">Rank any number of</tspan><tspan sodipodi:role="line" x="65.0622" y="153.971" id="tspan3489">options in your order</tspan><tspan sodipodi:role="line" x="65.0622" y="222.094" id="tspan3491">of preference.</tspan></text></switch>
    <path style="fill: rgb(200, 0, 0); fill-opacity: 1; fill-rule: nonzero; stroke: none; stroke-width: 1px; stroke-linecap: butt; stroke-linejoin: miter; stroke-opacity: 1;" id="path3507" d="M 156.06518,451.10238 C 163.38882,435.19115 166.47803,432.45799 184.87551,431.28409 C 189.50949,451.62343 189.94217,473.09358 190.36067,493.97200 C 190.36921,494.17424 190.45314,498.75818 190.46172,499.20429 L 175.03908,500.55359 C 175.06476,498.80432 175.10839,497.05527 175.11612,495.30573 C 175.21573,474.47884 175.44584,452.61181 169.17512,432.65768 C 194.91241,429.72324 176.33575,435.06221 171.92080,449.71521 L 156.06518,451.10238 z "/>
    <path style="fill: rgb(200, 0, 0); fill-opacity: 1; fill-rule: nonzero; stroke: none; stroke-width: 1px; stroke-linecap: butt; stroke-linejoin: miter; stroke-opacity: 1;" id="path3543" d="M 143.93735,860.73668 C 146.49927,854.29624 151.46291,848.92724 157.25186,845.16960 C 171.71537,842.11951 179.96586,839.94784 189.10616,850.20777 C 193.75986,857.74733 193.25942,867.31024 191.76584,875.75754 C 189.91438,884.13091 184.86748,891.23255 179.85412,898.01775 C 176.90876,901.99252 171.43599,909.39118 169.85878,911.48031 C 168.60252,910.45814 176.29672,910.77019 174.68176,910.89231 C 150.04936,912.75460 184.94900,904.86937 194.45049,900.54984 C 194.91132,900.33161 195.37216,900.11338 195.83294,899.89515 L 211.27302,902.43952 C 210.79834,902.62257 210.32361,902.80552 209.84893,902.98857 C 194.16128,910.33199 170.96961,921.32758 154.42399,914.78280 C 153.20000,908.11158 160.79744,902.76869 164.20502,897.14904 C 169.01334,890.71162 174.22063,884.17452 176.17718,876.22882 C 177.67175,868.71509 178.31242,860.12239 173.83623,853.57338 C 163.58282,843.82431 160.44219,851.18696 172.67766,848.00357 C 166.88198,849.94208 162.70919,855.48752 159.81476,859.62647 L 143.93735,860.73668 z "/>
    <path style="fill: rgb(200, 0, 0); fill-opacity: 1; fill-rule: nonzero; stroke: none; stroke-width: 1px; stroke-linecap: butt; stroke-linejoin: miter; stroke-opacity: 1;" id="path3560" d="M 147.39649,577.63889 C 151.13741,566.76535 165.55722,565.42586 175.96858,565.79604 C 185.36069,567.56994 192.81035,573.28648 196.13714,582.31466 C 197.04690,592.63196 190.52444,601.67230 182.00442,606.80672 C 174.34796,613.34016 168.41523,605.17258 177.48955,607.07090 C 186.92399,609.71409 195.74107,615.25561 199.76766,624.29210 C 196.29922,640.27967 169.02964,639.70766 154.96993,639.06998 C 152.02804,639.02175 149.12131,638.65938 146.21948,638.30536 L 159.98274,630.89571 C 162.76778,631.13051 165.55249,631.38039 168.34631,631.49579 C 209.21597,631.69635 159.05441,638.13818 184.63540,628.46175 C 180.94086,620.46619 172.05937,616.18055 163.71263,614.38069 C 152.79852,613.67992 158.37237,607.07594 166.40176,606.71879 C 174.52821,602.65491 180.83456,595.99735 181.07784,586.47750 C 177.48969,578.66738 171.09262,573.97799 162.29881,573.46066 C 148.25810,574.87086 178.49144,566.50811 162.96486,574.32973 L 147.39649,577.63889 z "/>
  </g>
</svg>
