<svg xmlns="http://www.w3.org/2000/svg" xmlns:xlink="http://www.w3.org/1999/xlink" width="698.714" height="698.714" xmlns:v="https://vecta.io/nano"><g fill-rule="evenodd"><path d="M690.714 600.5l27.143 39.643-10.714 78.929-98.214-3.929L690.714 600.5z" fill="#1129f2"/><path d="M505 597.643l58.571 20.714 25.714 93.571-167.857 9.643-15.357-113.214L505 597.643z" fill="#683f97"/><path d="M523.75 610.679l60.179 92.857 13.393-1.607 30.357-75.536L625.536 593l-74.821-9.464-26.964 27.143z" fill="#3cceaf"/><path d="M617.321 601.929l-2.857 43.929 77.143-16.25 14.643-17.5-10.357-15.714-78.571 5.536z" fill="#46a24b"/><path d="M556.25 587.821l60.893 16.607 87.5 3.214-6.429-35.714L593.75 526.75l-34.464 44.821-3.036 16.25z" fill="#d9690f"/><path d="M602.321 534.786l-42.143 44.286-46.786-117.5 104.821 15-15.893 58.214z" fill="#1ecb84"/><path d="M439.464 639.071l86.071-28.036-45.179-143.393-79.286 22.857-12.143 62.679 50.536 85.893zm-9.107 14.822l-2.857 49.286-130-1.607 42.143-71.071 90.714 23.393z" fill="#a2874d"/><path d="M343.571 640.143l-42.5 64.107-56.786-.714-13.393-48.571 77.321-54.107 35.357 39.286z" fill="#0e8bde"/><path d="M396.607 542.107l8.929 23.929-84.464 55.714-21.964-16.964 3.929-44.464 93.571-18.214z" fill="#1600e8"/><path d="M236.071 510.5l28.214 39.643 137.143-57.5 10.357-11.429-45.357-32.143-112.857 8.571-17.5 52.857z" fill="#8c1079"/><path d="M274.286 475.679l-26.607 46.071-29.464 7.679-24.643-82.857 52.679-53.214 21.429 3.393 6.607 78.929z" fill="#8c238f"/><path d="M304.821 571.214l-.536 38.036-50.893 33.571-46.607-120.357 15.179 1.429 27.679-5.536 22.5 15.536 32.679 37.321z" fill="#b4e2a8"/><path d="M215.179 525.143l41.25 115.536-17.679 24.107-63.036-87.679 13.393-55.179 26.071 3.214z" fill="#4adfb8"/><path d="M240.714 661.214l7.857 44.107-167.679-1.964 37.857-60.179 53.929-15.714 68.036 33.75z" fill="#518062"/><path d="M191.25 540.143l-3.929 39.286-28.929 61.964-12.5 1.429-45.536-76.429 7.857-20.357 83.036-5.893z" fill="#f2029a"/><path d="M107.321 554.429l48.75 87.143-66.964 58.036-39.286-111.964 57.5-33.214z" fill="#f63efc"/><path d="M201.071 533.714l-10.179 8.214-86.786 13.929-18.571-41.964L120 486.75l60.357 5.714 20.714 41.25z" fill="#d25c6a"/><path d="M90 513.893l17.679 41.429-53.393 51.071-63.214-24.107 7.5-104.821 53.036-.357L90 513.893z" fill="#9c3aa8"/><path d="M117.5 489.25l50 9.286-23.214-58.214-32.143 21.071 5.357 27.857z" fill="#a034c6"/><path d="M253.214 395.321l-54.643 64.464-51.071-36.429 5.536-38.393 38.75-18.036 60.714 17.5.714 10.893z" fill="#f208fb"/><path d="M156.607 391.036l6.429 38.571-16.786 21.429-33.036 12.857-29.643-14.286-7.5-50.714 29.464-31.607 51.071 23.75z" fill="#3677b6"/><path d="M98.393 452.464l-13.214-37.321-55.357 30.536-20.179 40.179 59.107 11.429 29.643-44.821z" fill="#f4d79d"/><path d="M38.75 444.786L9.643 486.214l-13.929 4.464 2.143-84.821 37.143-20 3.75 58.929z" fill="#40268d"/><path d="M30.536 391.036L-3.75 413.179l1.429-64.464 39.107 21.25-6.25 21.071z" fill="#671e2d"/><path d="M187.131 373.571l-30.305 19.824-55.306-17.046-12.753-14.268-3.788-84.6 74.625-.505 41.164 8.334-6.313 27.905-7.324 60.357z" fill="#c8dee1"/><path d="M251.781 389.86l.253 8.081 21.971 79.297 54.548-23.739-11.364-80.055-26.769-11.112-38.638 27.527z" fill="#cdfd7a"/><path d="M308.349 377.233l12.374 79.55 78.034 19.193 3.03-67.68-42.679-38.891-50.76 7.829z" fill="#aea357"/><path d="M477.045 478.249l-71.973 11.364-11.112-15.152-2.778-55.811 54.296-36.618 58.084-.758 2.02 82.833-28.537 14.142z" fill="#16ec2e"/><path d="M441.689 388.85l-50.003 36.871-26.517-48.487 33.84-39.396 25.759 10.607 16.92 40.406z" fill="#290e48"/><path d="M302.288 374.203l-48.992 14.647-23.739-75.761 80.56-24.244-7.829 85.358z" fill="#bec44b"/><path d="M437.901 265.611l-5.303 49.497-29.294 27.274-33.588 32.577-63.892-116.42 39.396-35.86 92.682 42.931z" fill="#4973af"/><path d="M188.646 289.855l7.071 13.132 41.669 14.9 72.478-26.011 10.607-27.274-2.02-5.051-121.471 12.374-8.334 17.93z" fill="#f1a79c"/><path d="M494.722 382.031l8.334 78.792 76.267-28.032-4.798-91.924-63.135-15.657-18.183 48.992 1.515 7.829zM593.214 283l16.071 91.786 117.143-6.429-26.071-62.857-81.429-41.786L593.214 283z" fill="#e9d4ba"/><path d="M632.143 273.536l70.179 55.179.357-61.071-31.071-39.107-39.464 45z" fill="#bf8a8b"/><path d="M655.893 252.107l-23.571 21.786-12.679-6.429-12.143-23.036 64.286-32.143-5.179 26.429-10.714 13.393z" fill="#855f44"/><path d="M680.536 174.429l-11.071 49.821 5.893 18.214 27.857 36.071-.536-98.571-22.143-5.536z" fill="#7b0cca"/><path d="M688.393 184.964l-16.786 33.214-2.857.714-54.464 27.143-27.679-24.643 37.679-70.893 60.893 17.5 3.214 16.964z" fill="#63026e"/><path d="M435.357 228l5.357 92.143 69.554 16.964 9.286-2.768 66.518-58.125-61.429-82.857L435.357 228z" fill="#218aa8"/><path d="M549.464 234.429l.357 37.143 68.036-14.821-1.607-11.607-9.286-13.75-57.5 3.036z" fill="#0376b2"/><path d="M525.536 208.893l23.929 26.25L608.571 233l3.214-26.786-87.857-2.679 1.607 5.357z" fill="#12ba0e"/><path d="M523.929 206.75l87.679.357 5.357-23.214-35-5.893-62.321 15.893 4.286 12.857z" fill="#36e5c3"/><path d="M616.786 184.25l11.429-20.893-16.786-16.607-86.964 20.893 2.857 27.143 89.464-10.536z" fill="#4e7a39"/><path d="M528.75 172.643l86.964-21.429-2.143-15-46.429-15.893-38.393 19.464v32.857z" fill="#4861f1"/><path d="M540.536 138.179l-10.714 35L478.393 148l19.643-70.179 30.179 2.143 12.321 58.214z" fill="#cf5c6c"/><path d="M513.75 82.643l26.607 56.607 34.286-16.607-7.857-60.893-53.036 20.893z" fill="#206a6f"/><path d="M564.821 67.821l4.286 58.214 48.214 26.429.357-81.607-52.857-3.036z" fill="#f26b5e"/><path d="M605.357 84.964l7.679 41.786 58.393-17.5 8.036-29.464-74.107 5.179z" fill="#da0d22"/><path d="M606.25 87.821l72.143 6.071 35.893-28.036-9.643-70.714-40.893 2.143-58.036 85.536.536 5z" fill="#4a40f4"/><path d="M565.536 68.714l-55.714 15.714L461.607 9.25l11.429-19.464L552.5-.929l16.964 51.786-3.929 17.857z" fill="#69b801"/><path d="M547.679 25.5L567.5 61.571 610 25.143l14.464-31.964-70 .714-6.786 31.607z" fill="#e92611"/><path d="M471.11 232.276l-31.441 47.098-3.62-.097-101.647-49.056-19.992-60.954 40.911-44.068 96.848 42.679 24.37 23.739-5.43 40.659z" fill="#08766a"/><path d="M456.715 182.905l-81.822-40.28 52.528-29.421 53.791 15.279 2.525 29.042-27.022 25.38z" fill="#b8cb0d"/><path d="M87.631 281.521l9.218 86.368-62.251 14.9-42.174-34.345 3.788-150.765 91.419 83.843z" fill="#79e428"/><path d="M150.26 280.511l-62.377 4.041-93.187-84.853 191.676-35.355-36.113 116.168z" fill="#939ddb"/><path d="M-1.01 15.346L61.619 43.63l-16.668 69.701-50.003 94.449-14.142-174.756L-1.01 15.346z" fill="#13d7a9"/><path d="M343.75 148.357l-23.393 33.036-120-4.464-15-97.857 110.357-52.5 70.714 46.786-22.679 75z" fill="#4a44e4"/><path d="M700.179 107.107l-.357 78.75-11.607-.357-36.071-17.857 48.036-60.536z" fill="#ed2290"/><path d="M670 94.25l-57.5 30-.714 27.321 14.107 15.714 22.5-1.25L670 94.25z" fill="#a61771"/><path d="M507.143 88.714l-21.25 58.393-6.071 1.071-28.036-20.357 34.464-39.464 20.893.357z" fill="#17bea3"/><path d="M488.929 90.679l-31.964 40.893-32.143-17.5 15-22.321 49.107-1.071z" fill="#1a6114"/><path d="M470.536 14.25L513.929 83l-6.25 6.25-72.5 9.821-.536-25.893 17.5-50 18.393-8.929z" fill="#3f755d"/><path d="M208.036 76.571l-10.893 31.786-81.25-22.857L86.786-.393l15.714-7.5 100 3.929 5.536 80.536z" fill="#7c7f10"/><path d="M11.875 201.929l167.054-33.393 33.571-15.893-14.286-47.143-73.036-24.643L10.357 197.643l1.518 4.286z" fill="#11ac4b"/><path d="M97.322 3.066l30.841 79.202-15.91 11.869-64.902-33.335 1.641-17.173L97.322 3.066z" fill="#4930bb"/><path d="M328.393 68.357l14.107 78.929 66.071-59.464-3.393-54.464-48.571-15.714-28.214 50.714z" fill="#bcbbfe"/><path d="M700.893 350.5l-67.321 14.107-18.214 99.286 18.214 17.143 68.571-1.429-1.25-129.107z" fill="#28c18d"/><path d="M632.5 475.143l-10.402-17.589-26.562-35.625-25.357 3.214-64.079 30.86-3.51 2.444 19.643 14.107 89.554 20.804 20.714-18.214z" fill="#01f2b5"/><path d="M541.607 305.5l-25.536 30 50.357 24.107 48.214 4.643-14.107-74.821-58.929 16.071z" fill="#c128cb"/><path d="M565.536 358.714l49.643 4.643-18.75 64.732L570 425.321l-4.464-66.607z" fill="#c709dd"/><path d="M232.84 167.879l14.9.253 73.489 12.122 16.668 50.003-.253 4.546-16.92 28.789-120.461 12.879 32.577-108.591z" fill="#2ffb48"/><path d="M399.137 42.62l5.43 21.908 31.504 12.059 27.59-53.412-64.523 19.445z" fill="#3e5432"/><path d="M286.631 43.062l42.174 28.095 38.386-51.518 8.081-26.264-101.52 4.546 12.879 45.141z" fill="#09dc47"/><path d="M619.464-1.821l-53.036 61.786-1.25 8.929L605.893 88l70.179-93.571-56.607 3.75z" fill="#0f3c51"/><path d="M558.75-4.321l-8.214 34.643L476.25-3.607l82.5-.714z" fill="#0d6d47"/><path d="M473.036-3.429l-2.143 20.357-8.571 8.75-62.857 18.75-35.179-20.536 4.821-27.857 103.929.536z" fill="#71d680"/><path d="M193.214-6.821l84.107 3.214 11.071 47.857-81.25 34.286-13.929-85.357z" fill="#ce96a8"/><path d="M98.036-2.179l-.179 6.429L48.75 47.107-5.893 21.75-4.286-2.714l102.321.536z" fill="#858056"/><path d="M47.321 59.607l66.429 33.571L12.143 201.75l-14.821 5.536 1.429-8.036L47.321 59.607z" fill="#73a008"/><path d="M212.321 152.464l21.429 15-31.607 107.857-12.321 16.964-40.714-11.429 28.571-111.964 34.643-16.429z" fill="#012a8f"/><path d="M404.286 63.179l32.143 13.036.893 22.321-9.286 17.143-50.893 27.5-34.643 5.893-.257-1.893 62.043-84z" fill="#c3b25f"/><path d="M456.429 182.643l22.679-34.821 7.857-2.321L530 171.75l-.357 28.571-4.107 8.929-55 23.929-14.107-50.536z" fill="#28f49b"/><path d="M618.214 255.679l5.536 14.107-22.321 22.143-59.821 13.393 8.214-34.107 68.393-15.536z" fill="#6c66b8"/><path d="M668.75 218.536L655.179 253l20.714-10.536L671.607 218l-2.857.536z" fill="#9d023f"/><path d="M700.536 68.536l-31.071 26.071-22.143 71.429 5 2.143 49.286-60.536-1.071-39.107z" fill="#c2c073"/><path d="M613.75 363.357l24.464-.357-15 96.429L596.071 428l17.679-64.643z" fill="#de27d0"/><path d="M700.179 471.929l-68.393 2.5-22.143 19.107-8.929 42.679 100 47.679-.536-111.964z" fill="#82b8ef"/><path d="M502.677 458.298l22.476 15.405 38.512 101.268-5.682 13.385-32.451 25.128-5.177-.758-43.942-134.098 26.264-20.329z" fill="#52a3ca"/><path d="M320.471 263.591l51.77 108.591-4.798 8.839-58.841-2.273-6.566-4.293 2.778-80.307 15.657-30.557z" fill="#420c60"/><path d="M193.192 297.936l45.457 19.193 16.415 70.711-3.283 3.536-66.67-15.91 8.081-77.529z" fill="#c7997d"/><path d="M96.722 367.384l6.819 9.344-16.92 43.184-48.235 25.506-9.091-53.538 3.788-10.859 63.64-13.637z" fill="#da11cd"/><path d="M97.985 451.479l21.213 9.596.505 28.789-28.284 27.022-25.506-20.203 32.072-45.204z" fill="#06e0ba"/><path d="M144.452 451.479l17.425-29.547 39.396 34.345 20.961 67.428-21.718 10.354-38.133-36.365-17.93-46.214z" fill="#23832d"/><path d="M187.888 573.455l52.472 88.019-84.797-19.581 32.325-68.438z" fill="#b47897"/><path d="M319.713 620.933l85.358-57.326 35.86 75.004-10.859 17.678-87.126-14.142-23.234-21.213z" fill="#d19a33"/><path d="M691.702 629.266l-77.277 13.132-25.759 59.599 50.255-1.01 52.78-71.721z" fill="#82b8ef"/><path d="M269.458 532.292l35.103 41.669L398 545.171l7.324-55.811-2.273-1.768-133.593 44.699z" fill="#651d5a"/><path d="M511.39 336.575l-71.721-57.579h-5.051l-32.325 64.145 38.891 45.962 53.791-4.798 16.415-47.73z" fill="#1e5191"/><path d="M92.143 700.857l-33.571-98.571-63.929-26.429L-6.786 710.5l98.929-9.643z" fill="#6b7c9c"/><path d="M32.767 8c0 .986-.799 1.786-1.786 1.786S29.196 8.987 29.196 8s.799-1.786 1.786-1.786 1.786.799 1.786 1.786z"/><use xlink:href="#B"/><use xlink:href="#B" x="78.75" y="12.678"/><use xlink:href="#B" x="72.679" y="25.178"/><use xlink:href="#B" x="145.893" y="-13.75"/><use xlink:href="#B" x="241.209" y="-29.187"/><use xlink:href="#B" x="311.793" y="-45.981"/><use xlink:href="#B" x="380.862" y="4.905"/><use xlink:href="#B" x="412.556" y="-4.06"/><use xlink:href="#B" x="404.222" y="-32.975"/><use xlink:href="#B" x="402.076" y="21.194"/><use xlink:href="#B" x="458.77" y="19.047"/><use xlink:href="#B" x="523.799" y="-22.495"/><use xlink:href="#B" x="534.658" y="-47.749"/><use xlink:href="#B" x="560.165" y="-41.309"/><use xlink:href="#B" x="602.212" y="-5.575"/><use xlink:href="#B" x="631.38" y="17.027"/><use xlink:href="#B" x="629.234" y="44.68"/><use xlink:href="#B" x="635.421" y="57.307"/><use xlink:href="#B" x="672.67" y="69.429"/><use xlink:href="#B" x="678.984" y="74.101"/><use xlink:href="#B" x="639.083" y="157.943"/><use xlink:href="#B" x="649.563" y="180.672"/><use xlink:href="#B" x="656.508" y="183.197"/><use xlink:href="#B" x="679.615" y="180.672"/><use xlink:href="#B" x="662.19" y="193.678"/><use xlink:href="#B" x="569.766" y="199.486"/><use xlink:href="#B" x="572.797" y="212.618"/><use xlink:href="#B" x="568.251" y="151.756"/><use xlink:href="#B" x="568.251" y="143.422"/><use xlink:href="#B" x="565.599" y="119.81"/><use xlink:href="#B" x="558.023" y="86.349"/><use xlink:href="#B" x="576.08" y="54.782"/><use xlink:href="#B" x="545.27" y="57.307"/><use xlink:href="#B" x="509.031" y="73.722"/><use xlink:href="#B" x="465.468" y="57.433"/><use xlink:href="#B" x="461.301" y="54.908"/><use xlink:href="#B" x="440.34" y="93.041"/><use xlink:href="#B" x="481.757" y="119.81"/><use xlink:href="#B" x="421.021" y="134.962"/><use xlink:href="#B" x="515.344" y="199.486"/><use xlink:href="#B" x="584.542" y="260.611"/><use xlink:href="#B" x="614.274" y="256.147"/><use xlink:href="#B" x="633.56" y="356.861"/><use xlink:href="#B" x="613.917" y="353.29"/><use xlink:href="#B" x="576.239" y="342.575"/><use xlink:href="#B" x="546.953" y="344.897"/><use xlink:href="#B" x="569.81" y="393.111"/><use xlink:href="#B" x="555.346" y="456.147"/><use xlink:href="#B" x="637.31" y="474.54"/><use xlink:href="#B" x="519.453" y="470.254"/><use xlink:href="#B" x="618.203" y="514.361"/><use xlink:href="#B" x="599.81" y="577.754"/><use xlink:href="#B" x="616.239" y="579.361"/><use xlink:href="#B" x="616.596" y="585.79"/><use xlink:href="#B" x="690.703" y="640.611"/><use xlink:href="#B" x="507.131" y="638.468"/><use xlink:href="#B" x="458.739" y="489.54"/><use xlink:href="#B" x="324.989" y="472.397"/><use xlink:href="#B" x="345.346" y="535.433"/><use xlink:href="#B" x="349.453" y="541.504"/><use xlink:href="#B" x="293.56" y="600.075"/><use xlink:href="#B" x="335.346" y="628.111"/><use xlink:href="#B" x="251.06" y="535.254"/><use xlink:href="#B" x="217.667" y="546.325"/><use xlink:href="#B" x="191.06" y="562.575"/><use xlink:href="#B" x="137.489" y="537.218"/><use xlink:href="#B" x="116.774" y="548.468"/><use xlink:href="#B" x="177.846" y="621.325"/><use xlink:href="#B" x="49.631" y="479.004"/><use xlink:href="#B" x="123.917" y="447.576"/><use xlink:href="#B" x="129.274" y="419.54"/><use xlink:href="#B" x="96.239" y="418.111"/><use xlink:href="#B" x="66.239" y="396.861"/><use xlink:href="#B" x="113.381" y="380.076"/><use xlink:href="#B" x="161.417" y="407.218"/><use xlink:href="#B" x="43.381" y="352.576"/><use xlink:href="#B" x="198.917" y="363.647"/><use xlink:href="#B" x="226.596" y="386.683"/><use xlink:href="#B" x="285.346" y="371.504"/><use xlink:href="#B" x="331.417" y="363.647"/><use xlink:href="#B" x="410.524" y="321.504"/><use xlink:href="#B" x="430.167" y="304.897"/><use xlink:href="#B" x="435.524" y="356.861"/><use xlink:href="#B" x="335.346" y="279.183"/><use xlink:href="#B" x="358.024" y="268.647"/><use xlink:href="#B" x="255.703" y="275.433"/><use xlink:href="#B" x="240.524" y="229.54"/><use xlink:href="#B" x="236.953" y="197.576"/><use xlink:href="#B" x="171.239" y="176.861"/><use xlink:href="#B" x="138.203" y="168.468"/><use xlink:href="#B" x="118.56" y="67.754"/><use xlink:href="#B" x="264.453" y="25.79"/><use xlink:href="#B" x="217.846" y="284.004"/><use xlink:href="#B" x="144.631" y="277.397"/><use xlink:href="#B" x="30.703" y="287.933"/><use xlink:href="#B" x="-5.011" y="334.004"/><use xlink:href="#B" x="9.81" y="357.576"/><use xlink:href="#B" x="3.203" y="587.575"/><use xlink:href="#B" x="314.258" y="437.1"/></g><defs ><path id="B" d="M8.66 58.358c0 .986-.799 1.786-1.786 1.786s-1.786-.799-1.786-1.786.799-1.786 1.786-1.786 1.786.799 1.786 1.786z"/></defs></svg>